<svg xmlns="http://www.w3.org/2000/svg" xmlns:xlink="http://www.w3.org/1999/xlink" width="500" zoomAndPan="magnify" viewBox="0 0 375 374.999991" height="500" preserveAspectRatio="xMidYMid meet" version="1.0"><defs><clipPath id="21bd73f4e8"><path d="M 13.046875 13.046875 L 361.796875 13.046875 L 361.796875 360 L 13.046875 360 Z M 13.046875 13.046875 " clip-rule="nonzero"/></clipPath><clipPath id="0ea2f41b9d"><path d="M 115 81 L 266 81 L 266 361.796875 L 115 361.796875 Z M 115 81 " clip-rule="nonzero"/></clipPath></defs><g clip-path="url(#21bd73f4e8)"><path fill="#1877f2" d="M 361.796875 187.421875 C 361.796875 91.117188 283.726562 13.046875 187.421875 13.046875 C 91.117188 13.046875 13.046875 91.117188 13.046875 187.421875 C 13.046875 274.457031 76.8125 346.597656 160.175781 359.679688 L 160.175781 237.828125 L 115.902344 237.828125 L 115.902344 187.421875 L 160.175781 187.421875 L 160.175781 149.003906 C 160.175781 105.300781 186.210938 81.164062 226.039062 81.164062 C 245.117188 81.164062 265.074219 84.570312 265.074219 84.570312 L 265.074219 127.480469 L 243.085938 127.480469 C 221.425781 127.480469 214.667969 140.921875 214.667969 154.710938 L 214.667969 187.421875 L 263.03125 187.421875 L 255.300781 237.828125 L 214.667969 237.828125 L 214.667969 359.679688 C 298.03125 346.597656 361.796875 274.457031 361.796875 187.421875 " fill-opacity="1" fill-rule="nonzero"/></g><g clip-path="url(#0ea2f41b9d)"><path fill="#ffffff" d="M 255.300781 237.828125 L 263.03125 187.421875 L 214.667969 187.421875 L 214.667969 154.710938 C 214.667969 140.921875 221.425781 127.480469 243.085938 127.480469 L 265.074219 127.480469 L 265.074219 84.570312 C 265.074219 84.570312 245.117188 81.164062 226.039062 81.164062 C 186.210938 81.164062 160.175781 105.300781 160.175781 149.003906 L 160.175781 187.421875 L 115.902344 187.421875 L 115.902344 237.828125 L 160.175781 237.828125 L 160.175781 359.679688 C 169.054688 361.074219 178.152344 361.796875 187.421875 361.796875 C 196.691406 361.796875 205.789062 361.074219 214.667969 359.679688 L 214.667969 237.828125 L 255.300781 237.828125 " fill-opacity="1" fill-rule="nonzero"/></g></svg>