<?xml version="1.0" encoding="utf-8"?>
<!-- Generator: Adobe Illustrator 26.0.2, SVG Export Plug-In . SVG Version: 6.00 Build 0)  -->
<svg version="1.1" id="Layer_3" xmlns="http://www.w3.org/2000/svg" xmlns:xlink="http://www.w3.org/1999/xlink" x="0px" y="0px"
	 viewBox="0 0 64 64" style="enable-background:new 0 0 64 64;" xml:space="preserve">
<g>
	<path style="fill:#F9D18F;" d="M36,14H20c-1.657,0-3,1.343-3,3v5h4v-4h14v4h4v-5C39,15.343,37.657,14,36,14z"/>
	<path style="fill:#976949;" d="M51,60H5c-1.657,0-3-1.343-3-3V25c0-1.657,1.343-3,3-3h46c1.657,0,3,1.343,3,3v32
		C54,58.657,52.657,60,51,60z"/>
	<path style="fill:#C18E5C;" d="M2,54v3c0,1.657,1.343,3,3,3h46c1.657,0,3-1.343,3-3v-3H2z"/>
	<path style="fill:#C18E5C;" d="M51,22H5c-1.657,0-3,1.343-3,3v8c0,4.418,3.582,8,8,8h36c4.418,0,8-3.582,8-8l-0.001-8.006
		C53.996,23.34,52.655,22,51,22z"/>
	<rect x="38" y="38" style="fill:#F5B95B;" width="6" height="8"/>
	<path style="fill:#A1CDF9;" d="M50,4c-6.627,0-12,5.373-12,12c0,3.83,1.801,7.233,4.595,9.43L43,28l2.651-0.825
		C47.001,27.701,48.464,28,50,28c6.627,0,12-5.373,12-12C62,9.373,56.627,4,50,4z"/>
	<circle style="fill:#C7E2FB;" cx="50" cy="16" r="8"/>
	<ellipse style="fill:#EBF7FE;" cx="51.5" cy="16" rx="6.5" ry="7.855"/>
	<path style="fill:#F9D18F;" d="M44,45.967V38h-5.981C38.208,42.243,40.771,45.645,44,45.967z"/>
	<rect x="12" y="38" style="fill:#F5B95B;" width="6" height="8"/>
	<path style="fill:#F9D18F;" d="M18,45.967V38h-5.981C12.208,42.243,14.771,45.645,18,45.967z"/>
	<g>
		<path d="M50,7c-4.963,0-9,4.038-9,9s4.037,9,9,9s9-4.038,9-9S54.963,7,50,7z M50,23c-3.859,0-7-3.14-7-7s3.141-7,7-7s7,3.14,7,7
			S53.859,23,50,23z"/>
		<path d="M51,11h-2v5c0,0.265,0.105,0.52,0.293,0.707l3,3l1.414-1.414L51,15.586V11z"/>
		<path d="M63,16c0-7.168-5.832-13-13-13c-6.217,0-11.423,4.39-12.696,10.231C36.888,13.087,36.451,13,36,13H20
			c-2.206,0-4,1.794-4,4v4H5c-2.206,0-4,1.794-4,4v8v24c0,2.206,1.794,4,4,4h46c2.206,0,4-1.794,4-4V33v-5.003
			C59.693,26.034,63,21.397,63,16z M18,17c0-1.103,0.897-2,2-2h16c0.37,0,0.726,0.104,1.036,0.293C37.023,15.528,37,15.761,37,16
			c0,1.749,0.363,3.438,1.016,5H36v-3c0-0.552-0.447-1-1-1H21c-0.553,0-1,0.448-1,1v3h-2V17z M34,21H22v-2h12V21z M51,59H5
			c-1.103,0-2-0.897-2-2v-2h50v2C53,58.103,52.103,59,51,59z M53,53H3V38.645C4.651,40.688,7.174,42,10,42h1v4c0,0.553,0.447,1,1,1
			h6c0.553,0,1-0.447,1-1v-4h18v4c0,0.553,0.447,1,1,1h6c0.553,0,1-0.447,1-1v-4h1c2.826,0,5.349-1.312,7-3.355V53z M13,45v-6h4v6
			H13z M39,45v-6h4v6H39z M53,33c0,3.859-3.141,7-7,7h-1v-2c0-0.553-0.447-1-1-1h-6c-0.553,0-1,0.447-1,1v2H19v-2
			c0-0.553-0.447-1-1-1h-6c-0.553,0-1,0.447-1,1v2h-1c-3.859,0-7-3.141-7-7v-8c0-1.103,0.897-2,2-2h34.062
			c0.707,1.098,1.573,2.103,2.605,2.965l0.346,2.191c0.045,0.287,0.213,0.54,0.459,0.693C42.632,28.949,42.815,29,43,29
			c0.1,0,0.2-0.015,0.297-0.045l2.324-0.723C47.041,28.742,48.512,29,50,29c1.034,0,2.035-0.134,3-0.363V33z M50,27
			c-1.355,0-2.696-0.255-3.986-0.757c-0.117-0.045-0.24-0.068-0.363-0.068c-0.101,0-0.2,0.015-0.297,0.045l-1.546,0.481
			l-0.225-1.427c-0.04-0.249-0.172-0.475-0.37-0.63C40.535,22.539,39,19.388,39,16c0-6.065,4.935-11,11-11s11,4.935,11,11
			S56.065,27,50,27z"/>
	</g>
</g>
</svg>
