<svg xmlns="http://www.w3.org/2000/svg" xmlns:xlink="http://www.w3.org/1999/xlink" width="500" zoomAndPan="magnify" viewBox="0 0 375 374.999991" height="500" preserveAspectRatio="xMidYMid meet" version="1.0"><defs><clipPath id="20c45874ec"><path d="M 20 19.890625 L 355 19.890625 L 355 355.140625 L 20 355.140625 Z M 20 19.890625 " clip-rule="nonzero"/></clipPath></defs><g clip-path="url(#20c45874ec)"><path fill="#0277b5" d="M 327.132812 19.890625 L 48.066406 19.890625 C 32.636719 19.890625 20.226562 32.46875 20.226562 47.730469 L 20.226562 327.300781 C 20.226562 342.730469 32.804688 355.140625 48.066406 355.140625 L 326.964844 355.140625 C 342.394531 355.140625 354.804688 342.5625 354.804688 327.300781 L 354.804688 47.730469 C 354.972656 32.46875 342.5625 19.890625 327.132812 19.890625 Z M 119.34375 296.441406 L 69.867188 296.441406 L 69.867188 147.851562 L 119.34375 147.851562 Z M 94.519531 129.90625 C 78.925781 129.90625 66.347656 117.328125 66.347656 101.730469 C 66.347656 86.136719 78.925781 73.558594 94.519531 73.558594 C 110.117188 73.558594 122.695312 86.136719 122.695312 101.730469 C 122.695312 117.328125 110.117188 129.90625 94.519531 129.90625 Z M 305.5 296.441406 L 255.855469 296.441406 L 254.683594 208.226562 C 254.683594 208.226562 255.855469 184.75 230.199219 184.914062 C 204.539062 185.082031 201.015625 208.226562 201.015625 208.226562 L 201.015625 296.441406 L 151.039062 296.441406 L 151.039062 147.851562 L 199.003906 147.851562 L 199.003906 168.3125 C 199.003906 168.3125 201.015625 161.605469 212.085938 153.722656 C 223.152344 145.839844 241.433594 144.164062 249.316406 144.5 C 257.199219 144.832031 267.933594 143.492188 285.875 155.902344 C 305.164062 169.152344 305.667969 203.867188 305.667969 203.867188 Z M 305.5 296.441406 " fill-opacity="1" fill-rule="nonzero"/></g></svg>