<svg xmlns="http://www.w3.org/2000/svg" xmlns:xlink="http://www.w3.org/1999/xlink" width="500" zoomAndPan="magnify" viewBox="0 0 375 374.999991" height="500" preserveAspectRatio="xMidYMid meet" version="1.0"><path fill="#cccccc" d="M 301.84375 179.921875 L 301.84375 179.703125 L 304.261719 181.019531 C 307.777344 182.777344 309.316406 187.171875 307.558594 190.90625 C 306.679688 192.441406 305.359375 193.542969 303.824219 194.199219 L 79.964844 306.238281 L 77.328125 307.558594 C 73.8125 309.316406 69.421875 307.777344 67.441406 304.261719 C 67.003906 303.164062 66.785156 302.066406 66.785156 300.964844 L 66.785156 74.035156 C 66.785156 70.078125 70.078125 66.785156 74.035156 66.785156 C 75.351562 66.785156 76.449219 67.222656 77.769531 67.664062 Z M 158.832031 187.609375 L 81.503906 94.246094 L 81.503906 280.753906 Z M 101.933594 279 L 195.738281 231.984375 L 168.496094 199.035156 Z M 168.496094 176.1875 L 195.738281 143.234375 L 101.933594 96.222656 Z M 177.945312 187.609375 L 209.359375 225.175781 L 284.710938 187.609375 L 209.140625 149.824219 Z M 177.945312 187.609375 " fill-opacity="1" fill-rule="evenodd"/><path fill="#eed836" d="M 208.480469 146.089844 L 291.300781 187.609375 L 208.480469 228.910156 L 173.988281 187.609375 Z M 208.480469 146.089844 " fill-opacity="1" fill-rule="evenodd"/><path fill="#5eb254" d="M 90.730469 87.433594 L 200.351562 142.136719 L 168.496094 180.800781 Z M 90.730469 87.433594 " fill-opacity="1" fill-rule="evenodd"/><path fill="#40a2a5" d="M 78.425781 86.117188 L 162.785156 187.609375 L 78.425781 288.882812 Z M 78.425781 86.117188 " fill-opacity="1" fill-rule="evenodd"/><path fill="#db4342" d="M 168.496094 194.421875 L 200.351562 232.863281 L 90.730469 287.785156 Z M 168.496094 194.421875 " fill-opacity="1" fill-rule="evenodd"/><path fill="#e6e6e6" d="M 77.769531 67.664062 L 301.84375 179.921875 L 301.84375 179.703125 L 304.261719 181.019531 C 307.777344 182.777344 309.316406 187.171875 307.558594 190.90625 C 306.679688 192.441406 305.359375 193.542969 303.824219 194.199219 L 79.964844 306.238281 L 77.328125 307.558594 C 73.8125 309.316406 69.421875 307.777344 67.441406 304.261719 C 67.003906 303.164062 66.785156 302.066406 66.785156 300.964844 L 66.785156 74.035156 C 66.785156 70.078125 70.078125 66.785156 74.035156 66.785156 C 75.351562 66.785156 76.449219 67.222656 77.769531 67.664062 Z M 54.921875 54.921875 C 21.089844 88.972656 0 135.765625 0 187.609375 C 0 239.234375 21.089844 286.246094 54.921875 320.078125 C 88.972656 353.910156 135.765625 375 187.609375 375 C 239.234375 375 286.246094 353.910156 320.078125 320.078125 C 353.910156 286.246094 375 239.234375 375 187.609375 C 375 135.765625 353.910156 88.972656 320.078125 54.921875 C 286.246094 21.089844 239.234375 0 187.609375 0 C 135.765625 0 88.972656 21.089844 54.921875 54.921875 Z M 54.921875 54.921875 " fill-opacity="1" fill-rule="evenodd"/></svg>