<svg xmlns="http://www.w3.org/2000/svg" xmlns:xlink="http://www.w3.org/1999/xlink" width="2245" zoomAndPan="magnify" viewBox="0 0 1683.75 1190.250009" height="1587" preserveAspectRatio="xMidYMid meet" version="1.0"><defs><clipPath id="e37b6f1587"><path d="M 246.902344 0 L 1436.578125 0 L 1436.578125 1189.5 L 246.902344 1189.5 Z M 246.902344 0 " clip-rule="nonzero"/></clipPath></defs><path fill="#9545ed" d="M 841.738281 356.902344 C 776.035156 356.902344 722.769531 410.167969 722.769531 475.871094 C 722.769531 541.578125 776.035156 594.839844 841.738281 594.839844 C 907.445312 594.839844 960.707031 541.578125 960.707031 475.871094 C 960.707031 410.167969 907.445312 356.902344 841.738281 356.902344 Z M 603.804688 475.871094 C 603.804688 344.460938 710.332031 237.933594 841.738281 237.933594 C 973.144531 237.933594 1079.675781 344.460938 1079.675781 475.871094 C 1079.675781 607.277344 973.144531 713.804688 841.738281 713.804688 C 710.332031 713.804688 603.804688 607.277344 603.804688 475.871094 Z M 603.804688 475.871094 " fill-opacity="1" fill-rule="evenodd"/><path fill="#9545ed" d="M 841.734375 862.515625 C 709.707031 862.515625 594.34375 934.175781 532.542969 1041.007812 L 429.5625 981.441406 C 511.753906 839.359375 665.519531 743.546875 841.734375 743.546875 C 1017.949219 743.546875 1171.714844 839.359375 1253.910156 981.441406 L 1150.925781 1041.007812 C 1089.125 934.175781 973.761719 862.515625 841.734375 862.515625 Z M 841.734375 862.515625 " fill-opacity="1" fill-rule="evenodd"/><g clip-path="url(#e37b6f1587)"><path fill="#3747d6" d="M 841.738281 118.96875 C 578.921875 118.96875 365.867188 332.023438 365.867188 594.839844 C 365.867188 857.65625 578.921875 1070.710938 841.738281 1070.710938 C 1104.554688 1070.710938 1317.609375 857.65625 1317.609375 594.839844 C 1317.609375 332.023438 1104.554688 118.96875 841.738281 118.96875 Z M 246.902344 594.839844 C 246.902344 266.316406 513.21875 0 841.738281 0 C 1170.257812 0 1436.578125 266.316406 1436.578125 594.839844 C 1436.578125 923.355469 1170.257812 1189.675781 841.738281 1189.675781 C 513.21875 1189.675781 246.902344 923.355469 246.902344 594.839844 Z M 246.902344 594.839844 " fill-opacity="1" fill-rule="evenodd"/></g></svg>