<svg xmlns="http://www.w3.org/2000/svg" xmlns:xlink="http://www.w3.org/1999/xlink" width="500" zoomAndPan="magnify" viewBox="0 0 375 374.999991" height="500" preserveAspectRatio="xMidYMid meet" version="1.0"><rect x="-37.5" width="450" fill="#ffffff" y="-37.499999" height="449.999989" fill-opacity="1"/><rect x="-37.5" width="450" fill="#ffffff" y="-37.499999" height="449.999989" fill-opacity="1"/><rect x="-37.5" width="450" fill="#ffffff" y="-37.499999" height="449.999989" fill-opacity="1"/><path fill="#000000" d="M 177.914062 8.707031 C 182.464844 2.089844 193.828125 3.859375 196.171875 11.570312 C 196.777344 16.53125 197.144531 21.460938 197.300781 26.460938 C 267.453125 30.820312 329.351562 85.914062 344.023438 154.363281 C 335.882812 154.765625 323.953125 157.386719 325.933594 168.167969 C 330.003906 181.765625 346.929688 175.148438 357.285156 177.050781 C 364.984375 175.796875 371.992188 185.199219 367.925781 191.984375 C 364.621094 200.378906 354.144531 197.714844 347.132812 198.769531 C 342.742188 268.957031 287.730469 330.988281 219.421875 345.644531 C 219.824219 336.96875 214.945312 323.445312 203.703125 328.246094 C 188.191406 336.605469 205.519531 360.898438 190.605469 369.816406 C 177.183594 375.023438 173.757812 358.476562 175.046875 348.75 C 104.960938 344.4375 43.027344 289.34375 28.4375 220.929688 C 37.101562 221.050781 49.679688 216.894531 46.210938 205.675781 C 40.371094 193.609375 24.570312 200.226562 14.132812 198.085938 C 5.507812 199.171875 -0.015625 187.109375 5.832031 181.015625 C 10.382812 174.921875 18.886719 177.625 25.335938 176.496094 C 29.53125 106.230469 84.65625 44.3125 152.925781 29.582031 C 153.410156 37.855469 156.1875 50.125 167.355469 47.625 C 183.027344 41.03125 170.335938 19.84375 177.914062 8.707031 Z M 148.132812 100.972656 C 121.976562 115.945312 106.78125 147.671875 111.902344 177.496094 C 114.808594 198.601562 127.863281 216.925781 144.75 229.402344 C 125.445312 239.414062 108.761719 254.867188 99.289062 274.6875 C 96.914062 280.179688 91.992188 287.199219 96.867188 292.804688 C 100.417969 298.535156 110.570312 299.140625 113.714844 292.769531 C 120.566406 280.097656 127.050781 266.613281 138.984375 257.859375 C 165.746094 235.5 208.058594 235.941406 234.375 258.75 C 245.539062 267.058594 250.980469 280.140625 258.679688 291.195312 C 265.332031 297.492188 277.21875 290.914062 276.050781 281.949219 C 267.984375 258.703125 249.371094 240.539062 227.933594 229.195312 C 239.296875 220.238281 249.816406 209.542969 255.292969 195.898438 C 268.515625 166.558594 259.96875 129.386719 235.308594 108.757812 C 211.761719 88.011719 174.96875 84.621094 148.132812 100.972656 Z M 148.132812 100.972656 " fill-opacity="1" fill-rule="nonzero"/></svg>