<svg xmlns="http://www.w3.org/2000/svg" xmlns:xlink="http://www.w3.org/1999/xlink" width="500" zoomAndPan="magnify" viewBox="0 0 375 374.999991" height="500" preserveAspectRatio="xMidYMid meet" version="1.0"><path fill="#9bc9ff" d="M 227.039062 243.101562 C 214.511719 254.132812 198.535156 260.183594 181.839844 260.183594 C 165.140625 260.183594 149.167969 254.132812 136.640625 243.101562 L 135.367188 241.980469 L 135.660156 240.308594 C 139.601562 217.867188 159.0625 201.609375 181.839844 201.609375 C 204.617188 201.609375 224.082031 217.867188 228.019531 240.308594 L 228.3125 241.980469 Z M 256.371094 191.691406 C 256.371094 150.59375 222.929688 117.148438 181.839844 117.148438 C 140.746094 117.148438 107.3125 150.589844 107.3125 191.691406 C 107.3125 232.785156 140.746094 266.234375 181.839844 266.234375 C 222.929688 266.234375 256.371094 232.785156 256.371094 191.691406 Z M 354.945312 241.339844 L 273.03125 241.339844 L 275.148438 236.996094 C 279.621094 227.804688 282.710938 217.996094 284.300781 207.898438 L 284.550781 206.308594 L 286.011719 205.628906 C 292.464844 202.625 299.539062 201.0625 306.660156 201.0625 C 328.925781 201.0625 348.382812 216.007812 353.964844 237.5625 Z M 181.839844 289.394531 C 235.710938 289.394531 279.527344 245.570312 279.527344 191.691406 C 279.527344 137.8125 235.707031 93.988281 181.839844 93.988281 C 127.96875 93.988281 84.148438 137.8125 84.148438 191.691406 C 84.148438 245.570312 127.96875 289.394531 181.839844 289.394531 Z M 299.230469 281.015625 C 300.367188 279.84375 301.914062 279.191406 303.542969 279.167969 C 303.574219 279.167969 303.605469 279.167969 303.636719 279.167969 C 305.230469 279.167969 306.75 279.769531 307.902344 280.882812 L 363.210938 334.5625 C 365.617188 336.898438 365.675781 340.824219 363.339844 343.230469 L 343.371094 363.816406 C 341.039062 366.21875 337.109375 366.28125 334.703125 363.949219 L 279.394531 310.273438 C 278.222656 309.136719 277.578125 307.601562 277.546875 305.976562 C 277.519531 304.34375 278.121094 302.777344 279.261719 301.601562 Z M 264.40625 128.96875 C 258.230469 120.855469 250.886719 113.675781 242.632812 107.6875 L 239.664062 105.535156 L 242.339844 103.03125 C 251.40625 94.550781 263.246094 89.882812 275.695312 89.878906 C 297.953125 89.886719 317.398438 104.835938 322.980469 126.378906 L 323.957031 130.160156 L 265.3125 130.160156 Z M 181.839844 61.742188 C 181.84375 61.742188 181.847656 61.742188 181.855469 61.742188 C 201.980469 61.75 220.027344 74.011719 227.351562 92.734375 L 230.007812 99.53125 L 223.324219 96.605469 C 210.222656 90.871094 196.136719 87.941406 181.839844 87.941406 C 167.535156 87.941406 153.453125 90.871094 140.351562 96.605469 L 133.667969 99.53125 L 136.324219 92.734375 C 143.644531 74.011719 161.699219 61.75 181.824219 61.742188 C 181.828125 61.742188 181.835938 61.742188 181.839844 61.742188 Z M 121.039062 107.683594 C 112.792969 113.675781 105.445312 120.859375 99.269531 128.96875 L 98.359375 130.160156 L 39.714844 130.160156 L 40.695312 126.378906 C 46.277344 104.835938 65.722656 89.886719 88.015625 89.878906 C 100.433594 89.886719 112.269531 94.550781 121.328125 103.03125 L 124 105.535156 Z M 79.375 207.898438 C 80.964844 217.996094 84.050781 227.804688 88.53125 236.992188 L 90.648438 241.339844 L 8.730469 241.339844 L 9.710938 237.558594 C 15.296875 216.003906 34.75 201.058594 57.015625 201.058594 C 64.132812 201.058594 71.214844 202.621094 77.664062 205.628906 L 79.125 206.308594 Z M 79.375 207.898438 " fill-opacity="1" fill-rule="evenodd"/><path fill="#57a4ff" d="M 138.636719 240.832031 C 142.296875 220 160.363281 204.632812 181.839844 204.632812 C 203.316406 204.632812 221.386719 220 225.042969 240.832031 C 213.507812 250.988281 198.382812 257.160156 181.839844 257.160156 C 165.292969 257.164062 150.167969 250.988281 138.636719 240.832031 Z M 181.839844 192.542969 C 171.25 192.542969 162.636719 183.929688 162.636719 173.335938 C 162.636719 162.746094 171.25 154.132812 181.839844 154.132812 C 192.425781 154.132812 201.042969 162.746094 201.042969 173.335938 C 201.042969 183.929688 192.425781 192.542969 181.839844 192.542969 Z M 181.839844 126.21875 C 145.742188 126.21875 116.375 155.589844 116.375 191.691406 C 116.375 206.070312 121.039062 219.378906 128.925781 230.191406 C 134.234375 214.761719 146.007812 202.554688 160.90625 196.582031 C 154.550781 190.84375 150.550781 182.546875 150.550781 173.335938 C 150.550781 156.082031 164.582031 142.042969 181.839844 142.042969 C 199.09375 142.042969 213.132812 156.082031 213.132812 173.335938 C 213.132812 182.546875 209.125 190.84375 202.773438 196.582031 C 217.667969 202.554688 229.441406 214.761719 234.753906 230.191406 C 242.636719 219.378906 247.300781 206.070312 247.300781 191.691406 C 247.300781 155.589844 217.933594 126.21875 181.839844 126.21875 Z M 181.839844 114.128906 C 139.078125 114.128906 104.289062 148.925781 104.289062 191.691406 C 104.289062 234.453125 139.078125 269.253906 181.839844 269.253906 C 224.597656 269.253906 259.394531 234.453125 259.394531 191.691406 C 259.394531 148.925781 224.597656 114.128906 181.839844 114.128906 Z M 361.171875 341.125 L 341.203125 361.710938 C 340.035156 362.917969 338.011719 362.953125 336.808594 361.777344 L 281.5 308.105469 C 280.703125 307.332031 280.578125 306.402344 280.570312 305.921875 C 280.558594 305.429688 280.660156 304.5 281.429688 303.707031 L 301.398438 283.121094 C 302.171875 282.328125 303.097656 282.199219 303.582031 282.191406 C 303.597656 282.191406 303.613281 282.191406 303.636719 282.191406 C 304.128906 282.191406 305.027344 282.304688 305.796875 283.054688 L 361.105469 336.730469 C 362.3125 337.90625 362.34375 339.917969 361.171875 341.125 Z M 265.683594 257.707031 L 288.101562 279.464844 L 278.832031 289.019531 L 256.792969 267.636719 C 259.957031 264.515625 262.929688 261.199219 265.683594 257.707031 Z M 87.171875 191.691406 C 87.171875 243.902344 129.640625 286.371094 181.839844 286.371094 C 234.042969 286.371094 276.507812 243.902344 276.507812 191.691406 C 276.507812 139.480469 234.042969 97.011719 181.839844 97.011719 C 129.640625 97.011719 87.171875 139.480469 87.171875 191.691406 Z M 12.636719 238.316406 C 17.800781 218.386719 35.824219 204.082031 57.015625 204.082031 C 63.71875 204.082031 70.359375 205.558594 76.386719 208.367188 C 78.054688 218.941406 81.277344 229.003906 85.8125 238.316406 Z M 36.816406 171.785156 C 36.816406 160.648438 45.878906 151.585938 57.015625 151.585938 C 67.832031 151.585938 76.574219 159.898438 77.175781 170.621094 C 76.613281 173.417969 76.164062 176.253906 75.828125 179.125 C 72.816406 186.839844 65.339844 191.992188 57.015625 191.992188 C 45.878906 191.992188 36.816406 182.925781 36.816406 171.785156 Z M 43.621094 127.140625 C 48.78125 107.21875 66.796875 92.90625 87.980469 92.898438 C 87.988281 92.898438 87.992188 92.898438 87.996094 92.898438 C 88.003906 92.898438 88.007812 92.898438 88.015625 92.898438 C 99.753906 92.90625 110.828125 97.34375 119.261719 105.238281 C 110.769531 111.40625 103.21875 118.789062 96.863281 127.136719 L 43.621094 127.136719 Z M 67.800781 60.609375 C 67.800781 49.46875 76.863281 40.410156 87.996094 40.410156 C 99.136719 40.410156 108.195312 49.46875 108.195312 60.609375 C 108.195312 71.738281 99.144531 80.800781 88.015625 80.808594 C 88.011719 80.808594 88.003906 80.808594 87.996094 80.808594 C 87.992188 80.808594 87.988281 80.808594 87.980469 80.808594 C 76.855469 80.800781 67.800781 71.746094 67.800781 60.609375 Z M 181.824219 64.765625 C 181.828125 64.765625 181.835938 64.769531 181.839844 64.769531 C 181.84375 64.769531 181.847656 64.765625 181.851562 64.765625 C 201.15625 64.769531 217.816406 76.660156 224.535156 93.835938 C 211.453125 88.109375 197.011719 84.917969 181.839844 84.917969 C 166.664062 84.917969 152.226562 88.109375 139.140625 93.835938 C 145.855469 76.660156 162.519531 64.769531 181.824219 64.765625 Z M 161.640625 32.476562 C 161.640625 21.339844 170.699219 12.273438 181.839844 12.273438 C 192.976562 12.273438 202.039062 21.339844 202.039062 32.476562 C 202.039062 43.613281 192.984375 52.675781 181.851562 52.675781 C 181.847656 52.675781 181.84375 52.675781 181.839844 52.675781 C 181.832031 52.675781 181.828125 52.675781 181.824219 52.675781 C 170.691406 52.667969 161.640625 43.613281 161.640625 32.476562 Z M 275.679688 92.898438 C 275.679688 92.898438 275.6875 92.898438 275.695312 92.898438 C 296.882812 92.90625 314.894531 107.21875 320.054688 127.140625 L 266.8125 127.140625 C 260.457031 118.789062 252.910156 111.40625 244.40625 105.238281 C 252.847656 97.34375 263.921875 92.90625 275.667969 92.898438 C 275.671875 92.898438 275.671875 92.898438 275.679688 92.898438 Z M 255.484375 60.609375 C 255.484375 49.46875 264.542969 40.410156 275.679688 40.410156 C 286.820312 40.410156 295.875 49.46875 295.875 60.609375 C 295.875 71.746094 286.824219 80.800781 275.695312 80.808594 C 275.6875 80.808594 275.679688 80.808594 275.679688 80.808594 C 275.671875 80.808594 275.664062 80.808594 275.65625 80.808594 C 264.527344 80.800781 255.484375 71.738281 255.484375 60.609375 Z M 306.660156 151.585938 C 317.796875 151.585938 326.863281 160.648438 326.863281 171.785156 C 326.863281 182.925781 317.796875 191.992188 306.660156 191.992188 C 298.34375 191.992188 290.859375 186.839844 287.855469 179.125 C 287.511719 176.253906 287.066406 173.417969 286.5 170.621094 C 287.105469 159.898438 295.847656 151.585938 306.660156 151.585938 Z M 351.039062 238.316406 L 277.863281 238.316406 C 282.398438 229.003906 285.625 218.941406 287.285156 208.367188 C 293.324219 205.558594 299.957031 204.082031 306.660156 204.082031 C 327.851562 204.082031 345.878906 218.386719 351.039062 238.316406 Z M 369.523438 328.054688 L 314.222656 274.378906 C 311.3125 271.558594 307.460938 270.0625 303.402344 270.097656 C 301.242188 270.128906 299.15625 270.621094 297.253906 271.496094 L 275.523438 250.40625 L 358.261719 250.40625 C 359.980469 250.40625 361.621094 249.683594 362.757812 248.40625 C 363.90625 247.128906 364.457031 245.421875 364.28125 243.71875 C 361.921875 221.683594 347.5 203.703125 327.972656 196.023438 C 334.699219 190.097656 338.953125 181.429688 338.953125 171.785156 C 338.953125 153.980469 324.46875 139.496094 306.660156 139.496094 C 296.152344 139.496094 286.871094 144.40625 280.988281 152.109375 C 279.203125 147.660156 277.132812 143.359375 274.789062 139.230469 L 327.289062 139.230469 C 329 139.230469 330.632812 138.5 331.78125 137.222656 C 332.921875 135.953125 333.472656 134.246094 333.292969 132.542969 C 330.9375 110.507812 316.511719 92.527344 296.988281 84.84375 C 303.710938 78.921875 307.964844 70.253906 307.964844 60.609375 C 307.964844 42.808594 293.484375 28.316406 275.679688 28.316406 C 257.878906 28.316406 243.394531 42.808594 243.394531 60.609375 C 243.394531 70.257812 247.648438 78.929688 254.382812 84.851562 C 248.292969 87.246094 242.636719 90.679688 237.652344 95.03125 C 232.757812 77.339844 219.820312 63.269531 203.148438 56.710938 C 209.875 50.785156 214.125 42.117188 214.125 32.472656 C 214.125 14.671875 199.640625 0.183594 181.839844 0.183594 C 164.035156 0.183594 149.550781 14.671875 149.550781 32.472656 C 149.550781 42.117188 153.804688 50.785156 160.527344 56.710938 C 143.855469 63.269531 130.917969 77.339844 126.019531 95.03125 C 121.039062 90.679688 115.382812 87.246094 109.296875 84.851562 C 116.027344 78.925781 120.285156 70.257812 120.285156 60.609375 C 120.285156 42.808594 105.800781 28.316406 87.996094 28.316406 C 70.191406 28.316406 55.710938 42.808594 55.710938 60.609375 C 55.710938 70.253906 59.964844 78.921875 66.683594 84.84375 C 47.164062 92.53125 32.738281 110.507812 30.382812 132.542969 C 30.199219 134.246094 30.746094 135.953125 31.894531 137.222656 C 33.042969 138.5 34.675781 139.230469 36.390625 139.230469 L 88.886719 139.230469 C 86.542969 143.359375 84.472656 147.65625 82.691406 152.109375 C 76.804688 144.40625 67.523438 139.496094 57.015625 139.496094 C 39.210938 139.496094 24.726562 153.980469 24.726562 171.785156 C 24.726562 181.425781 28.984375 190.097656 35.703125 196.023438 C 16.179688 203.703125 1.753906 221.683594 -0.601562 243.71875 C -0.785156 245.421875 -0.230469 247.128906 0.914062 248.40625 C 2.058594 249.683594 3.695312 250.40625 5.40625 250.40625 L 92.714844 250.40625 C 111.839844 279.335938 144.644531 298.460938 181.835938 298.460938 C 206.664062 298.460938 229.539062 289.933594 247.699219 275.660156 L 270.683594 297.972656 C 269.210938 300.398438 268.433594 303.183594 268.476562 306.101562 C 268.539062 310.167969 270.171875 313.960938 273.078125 316.78125 L 328.386719 370.457031 C 331.332031 373.320312 335.148438 374.738281 338.964844 374.738281 C 342.941406 374.738281 346.90625 373.199219 349.875 370.128906 L 369.84375 349.554688 C 375.679688 343.539062 375.535156 333.894531 369.523438 328.054688 Z M 369.523438 328.054688 " fill-opacity="1" fill-rule="evenodd"/></svg>