<svg xmlns="http://www.w3.org/2000/svg" xmlns:xlink="http://www.w3.org/1999/xlink" width="500" zoomAndPan="magnify" viewBox="0 0 375 374.999991" height="500" preserveAspectRatio="xMidYMid meet" version="1.0"><defs><g/><clipPath id="547f354b90"><path d="M 198 37.5 L 331 37.5 L 331 245 L 198 245 Z M 198 37.5 " clip-rule="nonzero"/></clipPath><clipPath id="427c8380ca"><path d="M 259 132 L 370.171875 132 L 370.171875 258 L 259 258 Z M 259 132 " clip-rule="nonzero"/></clipPath><clipPath id="e6633d9b43"><path d="M 44 37.5 L 177 37.5 L 177 245 L 44 245 Z M 44 37.5 " clip-rule="nonzero"/></clipPath></defs><g clip-path="url(#547f354b90)"><path fill="#ffde59" d="M 330.839844 110.414062 C 258.339844 116.691406 214.472656 180.109375 262.359375 244.257812 C 224.65625 219.191406 197.363281 179.269531 198.433594 132.957031 C 199.390625 92.539062 222.207031 56.0625 256.617188 37.539062 C 238.703125 60.273438 212.484375 112.519531 264.042969 107.65625 C 286.972656 105.4375 314.226562 101.648438 330.839844 110.414062 " fill-opacity="1" fill-rule="evenodd"/></g><g clip-path="url(#427c8380ca)"><path fill="#5e17eb" d="M 370.035156 164.535156 C 310.324219 183.402344 278.207031 217.964844 292.332031 258 C 245.441406 221.945312 250.722656 153.894531 300.371094 132.574219 C 271.050781 165.144531 280.65625 179 319.355469 170.351562 C 337.730469 166.253906 357.671875 161.816406 370.035156 164.535156 " fill-opacity="1" fill-rule="evenodd"/></g><path fill="#ffde59" d="M 268.714844 64.558594 C 276.371094 66.207031 281.269531 73.746094 279.660156 81.402344 C 278.015625 89.054688 270.511719 93.953125 262.820312 92.347656 C 255.164062 90.703125 250.265625 83.160156 251.871094 75.507812 C 253.519531 67.8125 261.058594 62.914062 268.714844 64.558594 " fill-opacity="1" fill-rule="evenodd"/><path fill="#5e17eb" d="M 309.210938 148.800781 C 313.613281 149.722656 316.410156 154.046875 315.453125 158.449219 C 314.535156 162.847656 310.207031 165.644531 305.804688 164.6875 C 301.402344 163.769531 298.609375 159.441406 299.566406 155.042969 C 300.484375 150.679688 304.8125 147.882812 309.210938 148.800781 " fill-opacity="1" fill-rule="evenodd"/><g clip-path="url(#e6633d9b43)"><path fill="#00bf63" d="M 44.25 110.414062 C 116.75 116.691406 160.617188 180.109375 112.730469 244.257812 C 150.433594 219.191406 177.726562 179.269531 176.65625 132.957031 C 175.699219 92.5 152.882812 56.023438 118.472656 37.5 C 136.386719 60.234375 162.605469 112.480469 111.046875 107.617188 C 88.117188 105.4375 60.863281 101.648438 44.25 110.414062 " fill-opacity="1" fill-rule="evenodd"/></g><path fill="#ff3131" d="M 5.054688 164.535156 C 64.765625 183.402344 96.882812 217.964844 82.757812 258 C 129.648438 221.945312 124.367188 153.894531 74.71875 132.574219 C 104.039062 165.144531 94.433594 179 55.734375 170.351562 C 37.398438 166.253906 17.417969 161.816406 5.054688 164.535156 " fill-opacity="1" fill-rule="evenodd"/><path fill="#00bf63" d="M 106.375 64.558594 C 98.71875 66.207031 93.820312 73.746094 95.429688 81.402344 C 97.074219 89.054688 104.613281 93.953125 112.269531 92.347656 C 119.925781 90.703125 124.824219 83.160156 123.21875 75.507812 C 121.609375 67.8125 114.070312 62.914062 106.375 64.558594 " fill-opacity="1" fill-rule="evenodd"/><path fill="#ff3131" d="M 65.914062 148.800781 C 61.511719 149.722656 58.71875 154.046875 59.675781 158.449219 C 60.59375 162.847656 64.921875 165.644531 69.324219 164.6875 C 73.722656 163.769531 76.519531 159.441406 75.5625 155.042969 C 74.605469 150.679688 70.28125 147.882812 65.914062 148.800781 " fill-opacity="1" fill-rule="evenodd"/><g fill="#f49f1c" fill-opacity="1"><g transform="translate(40.264411, 312.052012)"><g><path d="M 3.5 0 L 27.210938 0 C 28.761719 0 29.308594 -0.550781 29.308594 -2.101562 L 29.308594 -6.652344 C 29.308594 -8.253906 28.761719 -8.753906 27.210938 -8.753906 L 14.554688 -8.753906 L 28.359375 -28.210938 C 28.808594 -28.859375 29.058594 -29.460938 29.058594 -30.410156 L 29.058594 -33.410156 C 29.058594 -34.960938 28.511719 -35.511719 26.960938 -35.511719 L 3.75 -35.511719 C 2.199219 -35.511719 1.652344 -34.960938 1.652344 -33.410156 L 1.652344 -28.910156 C 1.652344 -27.308594 2.199219 -26.808594 3.75 -26.808594 L 15.957031 -26.808594 L 2.101562 -7.253906 C 1.652344 -6.652344 1.402344 -6.003906 1.402344 -5.152344 L 1.402344 -2.101562 C 1.402344 -0.550781 1.949219 0 3.5 0 Z M 3.5 0 "/></g></g></g><g fill="#f49f1c" fill-opacity="1"><g transform="translate(72.47475, 312.052012)"><g><path d="M 13.90625 0.75 C 19.65625 0.75 23.308594 -0.898438 25.207031 -4.203125 C 25.960938 -5.601562 25.609375 -6.453125 24.257812 -7.101562 L 20.808594 -8.601562 C 19.207031 -9.351562 18.707031 -9.054688 18.007812 -8.054688 C 17.304688 -7.152344 16.15625 -6.253906 14.003906 -6.253906 C 12.054688 -6.253906 10.753906 -7.152344 10.753906 -9.503906 L 10.753906 -10.453125 L 23.757812 -10.453125 C 25.808594 -10.453125 26.460938 -11.453125 26.460938 -13.054688 L 26.460938 -15.804688 C 26.460938 -21.808594 22.609375 -26.757812 13.953125 -26.757812 C 5.851562 -26.757812 1.449219 -22.707031 1.449219 -15.253906 L 1.449219 -10.804688 C 1.449219 -4.25 4.953125 0.75 13.90625 0.75 Z M 10.753906 -16.503906 L 10.753906 -17.15625 C 10.753906 -19.15625 11.753906 -20.15625 13.953125 -20.15625 C 16.207031 -20.15625 17.15625 -19.15625 17.15625 -17.15625 L 17.15625 -16.503906 Z M 10.753906 -16.503906 "/></g></g></g><g fill="#f49f1c" fill-opacity="1"><g transform="translate(101.584117, 312.052012)"><g><path d="M 3.300781 0 L 21.609375 0 C 23.058594 0 23.507812 -0.5 23.507812 -1.902344 L 23.507812 -6.003906 C 23.507812 -7.453125 23.058594 -7.902344 21.609375 -7.902344 L 12.703125 -7.902344 L 22.257812 -17.957031 C 22.957031 -18.707031 23.257812 -19.105469 23.257812 -20.207031 L 23.257812 -24.109375 C 23.257812 -25.507812 22.757812 -26.007812 21.359375 -26.007812 L 3.550781 -26.007812 C 2.101562 -26.007812 1.652344 -25.507812 1.652344 -24.109375 L 1.652344 -20.007812 C 1.652344 -18.554688 2.101562 -18.105469 3.550781 -18.105469 L 11.402344 -18.105469 L 2.101562 -7.800781 C 1.5 -7.152344 1.351562 -6.902344 1.351562 -5.800781 L 1.351562 -1.902344 C 1.351562 -0.5 1.851562 0 3.300781 0 Z M 3.300781 0 "/></g></g></g><g fill="#f49f1c" fill-opacity="1"><g transform="translate(127.8926, 312.052012)"><g><path d="M 4.101562 0 L 9.601562 0 C 11.003906 0 11.503906 -0.5 11.503906 -1.902344 L 11.503906 -18.15625 C 11.703125 -18.207031 12.753906 -18.40625 13.855469 -18.40625 C 15.855469 -18.40625 16.855469 -17.507812 16.855469 -15.605469 L 16.855469 -1.902344 C 16.855469 -0.5 17.355469 0 18.804688 0 L 24.257812 0 C 25.710938 0 26.160156 -0.5 26.160156 -1.902344 L 26.160156 -16.003906 C 26.160156 -22.757812 22.609375 -26.757812 14.90625 -26.757812 C 13.355469 -26.757812 11.902344 -26.609375 11.503906 -26.558594 L 11.503906 -35.113281 C 11.503906 -36.511719 11.003906 -37.011719 9.601562 -37.011719 L 4.101562 -37.011719 C 2.699219 -37.011719 2.199219 -36.511719 2.199219 -35.113281 L 2.199219 -1.902344 C 2.199219 -0.5 2.699219 0 4.101562 0 Z M 4.101562 0 "/></g></g></g><g fill="#f49f1c" fill-opacity="1"><g transform="translate(157.45211, 312.052012)"><g><path d="M 13.054688 0.75 C 17.605469 0.75 20.957031 0.199219 22.957031 -0.648438 C 24.410156 -1.25 24.808594 -1.800781 24.808594 -3.652344 L 24.808594 -15.957031 C 24.808594 -22.359375 22.058594 -26.757812 13.203125 -26.757812 C 7.601562 -26.757812 3.902344 -25.007812 2.101562 -21.558594 C 1.351562 -20.105469 1.800781 -19.40625 3.152344 -18.804688 L 6.703125 -17.355469 C 8.304688 -16.707031 8.804688 -17.054688 9.503906 -17.957031 C 10.203125 -18.90625 11.105469 -19.707031 12.753906 -19.707031 C 14.804688 -19.707031 15.554688 -18.757812 15.554688 -17.105469 L 15.554688 -15.804688 C 15.003906 -15.804688 14.15625 -15.855469 13.304688 -15.855469 C 4.75 -15.855469 1.152344 -14.054688 1.152344 -7.550781 C 1.152344 -1.949219 3.652344 0.75 13.054688 0.75 Z M 12.804688 -5.601562 C 10.703125 -5.601562 10.253906 -6.453125 10.253906 -7.601562 C 10.253906 -8.703125 10.753906 -9.652344 12.90625 -9.652344 C 13.753906 -9.652344 14.90625 -9.601562 15.554688 -9.601562 L 15.554688 -6.003906 C 15.554688 -5.800781 15.457031 -5.753906 15.304688 -5.753906 C 14.804688 -5.652344 14.105469 -5.601562 12.804688 -5.601562 Z M 12.804688 -5.601562 "/></g></g></g><g fill="#f49f1c" fill-opacity="1"><g transform="translate(185.561155, 312.052012)"><g><path d="M 12.355469 0 L 18.007812 0 C 19.605469 0 20.105469 -0.550781 20.105469 -2.101562 L 20.105469 -26.808594 L 27.558594 -26.808594 C 29.160156 -26.808594 29.660156 -27.308594 29.660156 -28.910156 L 29.660156 -33.410156 C 29.660156 -34.960938 29.160156 -35.511719 27.558594 -35.511719 L 2.800781 -35.511719 C 1.199219 -35.511719 0.699219 -34.960938 0.699219 -33.410156 L 0.699219 -28.910156 C 0.699219 -27.308594 1.199219 -26.808594 2.800781 -26.808594 L 10.253906 -26.808594 L 10.253906 -2.101562 C 10.253906 -0.550781 10.753906 0 12.355469 0 Z M 12.355469 0 "/></g></g></g><g fill="#f49f1c" fill-opacity="1"><g transform="translate(217.371379, 312.052012)"><g><path d="M 13.054688 0.75 C 17.605469 0.75 20.957031 0.199219 22.957031 -0.648438 C 24.410156 -1.25 24.808594 -1.800781 24.808594 -3.652344 L 24.808594 -15.957031 C 24.808594 -22.359375 22.058594 -26.757812 13.203125 -26.757812 C 7.601562 -26.757812 3.902344 -25.007812 2.101562 -21.558594 C 1.351562 -20.105469 1.800781 -19.40625 3.152344 -18.804688 L 6.703125 -17.355469 C 8.304688 -16.707031 8.804688 -17.054688 9.503906 -17.957031 C 10.203125 -18.90625 11.105469 -19.707031 12.753906 -19.707031 C 14.804688 -19.707031 15.554688 -18.757812 15.554688 -17.105469 L 15.554688 -15.804688 C 15.003906 -15.804688 14.15625 -15.855469 13.304688 -15.855469 C 4.75 -15.855469 1.152344 -14.054688 1.152344 -7.550781 C 1.152344 -1.949219 3.652344 0.75 13.054688 0.75 Z M 12.804688 -5.601562 C 10.703125 -5.601562 10.253906 -6.453125 10.253906 -7.601562 C 10.253906 -8.703125 10.753906 -9.652344 12.90625 -9.652344 C 13.753906 -9.652344 14.90625 -9.601562 15.554688 -9.601562 L 15.554688 -6.003906 C 15.554688 -5.800781 15.457031 -5.753906 15.304688 -5.753906 C 14.804688 -5.652344 14.105469 -5.601562 12.804688 -5.601562 Z M 12.804688 -5.601562 "/></g></g></g><g fill="#f49f1c" fill-opacity="1"><g transform="translate(245.480424, 312.052012)"><g><path d="M 4.152344 0 L 9.601562 0 C 11.054688 0 11.554688 -0.5 11.554688 -1.902344 L 11.554688 -35.113281 C 11.554688 -36.511719 11.054688 -37.011719 9.601562 -37.011719 L 4.152344 -37.011719 C 2.699219 -37.011719 2.25 -36.511719 2.25 -35.113281 L 2.25 -1.902344 C 2.25 -0.5 2.699219 0 4.152344 0 Z M 4.152344 0 "/></g></g></g><g fill="#f49f1c" fill-opacity="1"><g transform="translate(260.685432, 312.052012)"><g><path d="M 13.90625 0.75 C 19.65625 0.75 23.308594 -0.898438 25.207031 -4.203125 C 25.960938 -5.601562 25.609375 -6.453125 24.257812 -7.101562 L 20.808594 -8.601562 C 19.207031 -9.351562 18.707031 -9.054688 18.007812 -8.054688 C 17.304688 -7.152344 16.15625 -6.253906 14.003906 -6.253906 C 12.054688 -6.253906 10.753906 -7.152344 10.753906 -9.503906 L 10.753906 -10.453125 L 23.757812 -10.453125 C 25.808594 -10.453125 26.460938 -11.453125 26.460938 -13.054688 L 26.460938 -15.804688 C 26.460938 -21.808594 22.609375 -26.757812 13.953125 -26.757812 C 5.851562 -26.757812 1.449219 -22.707031 1.449219 -15.253906 L 1.449219 -10.804688 C 1.449219 -4.25 4.953125 0.75 13.90625 0.75 Z M 10.753906 -16.503906 L 10.753906 -17.15625 C 10.753906 -19.15625 11.753906 -20.15625 13.953125 -20.15625 C 16.207031 -20.15625 17.15625 -19.15625 17.15625 -17.15625 L 17.15625 -16.503906 Z M 10.753906 -16.503906 "/></g></g></g><g fill="#f49f1c" fill-opacity="1"><g transform="translate(289.794805, 312.052012)"><g><path d="M 4 0 L 9.503906 0 C 10.902344 0 11.402344 -0.5 11.402344 -1.902344 L 11.402344 -17.957031 C 11.402344 -18.054688 11.453125 -18.105469 11.554688 -18.15625 C 12.203125 -18.304688 12.90625 -18.40625 13.753906 -18.40625 C 15.804688 -18.40625 16.757812 -17.605469 16.757812 -15.605469 L 16.757812 -1.902344 C 16.757812 -0.5 17.257812 0 18.707031 0 L 24.160156 0 C 25.609375 0 26.058594 -0.5 26.058594 -1.902344 L 26.058594 -16.003906 C 26.058594 -22.757812 22.507812 -26.757812 14.804688 -26.757812 C 9.652344 -26.757812 6.351562 -25.757812 4.152344 -24.910156 C 2.5 -24.207031 2.101562 -23.558594 2.101562 -21.90625 L 2.101562 -1.902344 C 2.101562 -0.5 2.601562 0 4 0 Z M 4 0 "/></g></g></g><g fill="#f49f1c" fill-opacity="1"><g transform="translate(319.254276, 312.052012)"><g><path d="M 17.257812 0 C 18.757812 0 19.207031 -0.550781 19.207031 -2.050781 L 19.207031 -6.351562 C 19.207031 -7.800781 18.757812 -8.304688 17.257812 -8.304688 C 14.804688 -8.304688 13.855469 -9.054688 13.855469 -11.804688 L 13.855469 -18.40625 L 17.304688 -18.40625 C 18.757812 -18.40625 19.207031 -18.90625 19.207031 -20.355469 L 19.207031 -24.109375 C 19.207031 -25.507812 18.757812 -26.007812 17.304688 -26.007812 L 13.855469 -26.007812 L 13.855469 -30.109375 C 13.855469 -31.511719 13.355469 -32.011719 11.902344 -32.011719 L 6.453125 -32.011719 C 5 -32.011719 4.550781 -31.511719 4.550781 -30.109375 L 4.550781 -26.007812 L 2.351562 -26.007812 C 0.898438 -26.007812 0.449219 -25.507812 0.449219 -24.109375 L 0.449219 -20.355469 C 0.449219 -18.90625 0.898438 -18.40625 2.351562 -18.40625 L 4.550781 -18.40625 L 4.550781 -11.152344 C 4.550781 -2.75 8.503906 0 17.257812 0 Z M 17.257812 0 "/></g></g></g></svg>