<svg xmlns="http://www.w3.org/2000/svg" xmlns:xlink="http://www.w3.org/1999/xlink" width="500" zoomAndPan="magnify" viewBox="0 0 375 374.999991" height="500" preserveAspectRatio="xMidYMid meet" version="1.0"><defs><clipPath id="edf68fb482"><path d="M 18.976562 18.976562 L 357.976562 18.976562 L 357.976562 357.976562 L 18.976562 357.976562 Z M 18.976562 18.976562 " clip-rule="nonzero"/></clipPath></defs><g clip-path="url(#edf68fb482)"><path fill="#1b9df0" d="M 357.976562 188.476562 C 357.976562 191.253906 357.910156 194.023438 357.773438 196.796875 C 357.636719 199.566406 357.433594 202.332031 357.160156 205.09375 C 356.890625 207.851562 356.550781 210.605469 356.144531 213.347656 C 355.738281 216.09375 355.261719 218.824219 354.722656 221.546875 C 354.179688 224.265625 353.574219 226.972656 352.898438 229.664062 C 352.222656 232.355469 351.484375 235.027344 350.679688 237.679688 C 349.875 240.335938 349.003906 242.96875 348.070312 245.582031 C 347.136719 248.191406 346.136719 250.78125 345.074219 253.34375 C 344.015625 255.90625 342.890625 258.441406 341.703125 260.949219 C 340.519531 263.457031 339.269531 265.933594 337.964844 268.378906 C 336.65625 270.828125 335.289062 273.238281 333.863281 275.617188 C 332.4375 277.996094 330.953125 280.339844 329.414062 282.648438 C 327.871094 284.953125 326.273438 287.222656 324.621094 289.449219 C 322.96875 291.675781 321.261719 293.863281 319.503906 296.007812 C 317.742188 298.152344 315.933594 300.25 314.070312 302.308594 C 312.207031 304.363281 310.292969 306.371094 308.332031 308.332031 C 306.371094 310.292969 304.363281 312.207031 302.308594 314.070312 C 300.25 315.933594 298.152344 317.742188 296.007812 319.503906 C 293.863281 321.261719 291.675781 322.96875 289.449219 324.621094 C 287.222656 326.273438 284.953125 327.871094 282.648438 329.414062 C 280.339844 330.953125 277.996094 332.4375 275.617188 333.863281 C 273.238281 335.289062 270.828125 336.65625 268.378906 337.964844 C 265.933594 339.269531 263.457031 340.519531 260.949219 341.703125 C 258.441406 342.890625 255.90625 344.015625 253.34375 345.074219 C 250.78125 346.136719 248.191406 347.136719 245.582031 348.070312 C 242.96875 349.003906 240.335938 349.875 237.679688 350.679688 C 235.027344 351.484375 232.355469 352.222656 229.664062 352.898438 C 226.972656 353.574219 224.265625 354.179688 221.546875 354.722656 C 218.824219 355.261719 216.09375 355.738281 213.347656 356.144531 C 210.605469 356.550781 207.851562 356.890625 205.09375 357.160156 C 202.332031 357.433594 199.566406 357.636719 196.796875 357.773438 C 194.023438 357.910156 191.253906 357.976562 188.476562 357.976562 C 185.703125 357.976562 182.933594 357.910156 180.160156 357.773438 C 177.390625 357.636719 174.625 357.433594 171.863281 357.160156 C 169.105469 356.890625 166.351562 356.550781 163.605469 356.144531 C 160.863281 355.738281 158.132812 355.261719 155.410156 354.722656 C 152.691406 354.179688 149.984375 353.574219 147.292969 352.898438 C 144.601562 352.222656 141.929688 351.484375 139.273438 350.679688 C 136.621094 349.875 133.988281 349.003906 131.375 348.070312 C 128.761719 347.136719 126.175781 346.136719 123.613281 345.074219 C 121.050781 344.015625 118.515625 342.890625 116.007812 341.703125 C 113.5 340.519531 111.023438 339.269531 108.578125 337.964844 C 106.128906 336.65625 103.71875 335.289062 101.335938 333.863281 C 98.957031 332.4375 96.617188 330.953125 94.308594 329.414062 C 92.003906 327.871094 89.734375 326.273438 87.507812 324.621094 C 85.277344 322.96875 83.09375 321.261719 80.949219 319.503906 C 78.804688 317.742188 76.703125 315.933594 74.648438 314.070312 C 72.59375 312.207031 70.585938 310.292969 68.625 308.332031 C 66.660156 306.371094 64.75 304.363281 62.886719 302.308594 C 61.023438 300.25 59.210938 298.152344 57.453125 296.007812 C 55.691406 293.863281 53.988281 291.675781 52.335938 289.449219 C 50.683594 287.222656 49.085938 284.953125 47.542969 282.648438 C 46.003906 280.339844 44.519531 277.996094 43.09375 275.617188 C 41.667969 273.238281 40.300781 270.828125 38.992188 268.378906 C 37.683594 265.933594 36.4375 263.457031 35.25 260.949219 C 34.066406 258.441406 32.941406 255.90625 31.878906 253.34375 C 30.820312 250.78125 29.820312 248.191406 28.886719 245.582031 C 27.953125 242.96875 27.082031 240.335938 26.277344 237.679688 C 25.472656 235.027344 24.730469 232.355469 24.058594 229.664062 C 23.382812 226.972656 22.777344 224.265625 22.234375 221.546875 C 21.695312 218.824219 21.21875 216.09375 20.8125 213.347656 C 20.40625 210.605469 20.066406 207.851562 19.792969 205.09375 C 19.523438 202.332031 19.320312 199.566406 19.183594 196.796875 C 19.046875 194.023438 18.976562 191.253906 18.976562 188.476562 C 18.976562 185.703125 19.046875 182.933594 19.183594 180.160156 C 19.320312 177.390625 19.523438 174.625 19.792969 171.863281 C 20.066406 169.105469 20.40625 166.351562 20.8125 163.605469 C 21.21875 160.863281 21.695312 158.132812 22.234375 155.410156 C 22.777344 152.691406 23.382812 149.984375 24.058594 147.292969 C 24.730469 144.601562 25.472656 141.929688 26.277344 139.273438 C 27.082031 136.621094 27.953125 133.988281 28.886719 131.375 C 29.820312 128.761719 30.820312 126.175781 31.878906 123.613281 C 32.941406 121.050781 34.066406 118.515625 35.25 116.007812 C 36.4375 113.5 37.683594 111.023438 38.992188 108.578125 C 40.300781 106.128906 41.667969 103.71875 43.09375 101.335938 C 44.519531 98.957031 46.003906 96.617188 47.542969 94.308594 C 49.085938 92.003906 50.683594 89.734375 52.335938 87.507812 C 53.988281 85.277344 55.691406 83.09375 57.453125 80.949219 C 59.210938 78.804688 61.023438 76.703125 62.886719 74.648438 C 64.75 72.59375 66.660156 70.585938 68.625 68.625 C 70.585938 66.660156 72.59375 64.75 74.648438 62.886719 C 76.703125 61.023438 78.804688 59.210938 80.949219 57.453125 C 83.09375 55.691406 85.277344 53.988281 87.507812 52.335938 C 89.734375 50.683594 92.003906 49.085938 94.308594 47.542969 C 96.617188 46.003906 98.957031 44.519531 101.335938 43.09375 C 103.71875 41.667969 106.128906 40.300781 108.578125 38.992188 C 111.023438 37.683594 113.5 36.4375 116.007812 35.25 C 118.515625 34.066406 121.050781 32.941406 123.613281 31.878906 C 126.175781 30.820312 128.761719 29.820312 131.375 28.886719 C 133.988281 27.953125 136.621094 27.082031 139.273438 26.277344 C 141.929688 25.472656 144.601562 24.730469 147.292969 24.058594 C 149.984375 23.382812 152.691406 22.777344 155.410156 22.234375 C 158.132812 21.695312 160.863281 21.21875 163.605469 20.8125 C 166.351562 20.40625 169.105469 20.066406 171.863281 19.792969 C 174.625 19.523438 177.390625 19.320312 180.160156 19.183594 C 182.933594 19.046875 185.703125 18.976562 188.476562 18.976562 C 191.253906 18.976562 194.023438 19.046875 196.796875 19.183594 C 199.566406 19.320312 202.332031 19.523438 205.09375 19.792969 C 207.851562 20.066406 210.605469 20.40625 213.347656 20.8125 C 216.09375 21.21875 218.824219 21.695312 221.546875 22.234375 C 224.265625 22.777344 226.972656 23.382812 229.664062 24.058594 C 232.355469 24.730469 235.027344 25.472656 237.679688 26.277344 C 240.335938 27.082031 242.96875 27.953125 245.582031 28.886719 C 248.191406 29.820312 250.78125 30.820312 253.34375 31.878906 C 255.90625 32.941406 258.441406 34.066406 260.949219 35.25 C 263.457031 36.4375 265.933594 37.683594 268.378906 38.992188 C 270.828125 40.300781 273.238281 41.667969 275.617188 43.09375 C 277.996094 44.519531 280.339844 46.003906 282.648438 47.542969 C 284.953125 49.085938 287.222656 50.683594 289.449219 52.335938 C 291.675781 53.988281 293.863281 55.691406 296.007812 57.453125 C 298.152344 59.210938 300.25 61.023438 302.308594 62.886719 C 304.363281 64.75 306.371094 66.660156 308.332031 68.625 C 310.292969 70.585938 312.207031 72.59375 314.070312 74.648438 C 315.933594 76.703125 317.742188 78.804688 319.503906 80.949219 C 321.261719 83.09375 322.96875 85.277344 324.621094 87.507812 C 326.273438 89.734375 327.871094 92.003906 329.414062 94.308594 C 330.953125 96.617188 332.4375 98.957031 333.863281 101.335938 C 335.289062 103.71875 336.65625 106.128906 337.964844 108.578125 C 339.269531 111.023438 340.519531 113.5 341.703125 116.007812 C 342.890625 118.515625 344.015625 121.050781 345.074219 123.613281 C 346.136719 126.175781 347.136719 128.761719 348.070312 131.375 C 349.003906 133.988281 349.875 136.621094 350.679688 139.273438 C 351.484375 141.929688 352.222656 144.601562 352.898438 147.292969 C 353.574219 149.984375 354.179688 152.691406 354.722656 155.410156 C 355.261719 158.132812 355.738281 160.863281 356.144531 163.605469 C 356.550781 166.351562 356.890625 169.105469 357.160156 171.863281 C 357.433594 174.625 357.636719 177.390625 357.773438 180.160156 C 357.910156 182.933594 357.976562 185.703125 357.976562 188.476562 Z M 357.976562 188.476562 " fill-opacity="1" fill-rule="nonzero"/></g><path fill="#ffffff" d="M 157.460938 277.890625 C 232.632812 277.890625 273.738281 215.597656 273.738281 161.613281 C 273.738281 159.832031 273.738281 158.054688 273.652344 156.359375 C 281.617188 150.59375 288.566406 143.390625 294.078125 135.171875 C 286.789062 138.390625 278.90625 140.59375 270.601562 141.613281 C 279.074219 136.527344 285.515625 128.558594 288.566406 118.984375 C 280.6875 123.644531 271.957031 127.035156 262.632812 128.898438 C 255.175781 120.933594 244.582031 116.015625 232.800781 116.015625 C 210.257812 116.015625 191.953125 134.324219 191.953125 156.867188 C 191.953125 160.085938 192.292969 163.222656 193.054688 166.1875 C 159.070312 164.492188 128.984375 148.222656 108.8125 123.476562 C 105.339844 129.492188 103.304688 136.527344 103.304688 143.984375 C 103.304688 158.136719 110.507812 170.679688 121.527344 177.96875 C 114.832031 177.800781 108.558594 175.933594 103.050781 172.882812 C 103.050781 173.054688 103.050781 173.222656 103.050781 173.394531 C 103.050781 193.222656 117.117188 209.664062 135.847656 213.480469 C 132.457031 214.410156 128.8125 214.921875 125.085938 214.921875 C 122.457031 214.921875 119.914062 214.664062 117.371094 214.15625 C 122.542969 230.429688 137.628906 242.210938 155.511719 242.546875 C 141.527344 253.480469 123.898438 260.007812 104.746094 260.007812 C 101.441406 260.007812 98.21875 259.835938 95 259.414062 C 112.882812 271.109375 134.40625 277.890625 157.460938 277.890625 " fill-opacity="1" fill-rule="nonzero"/></svg>