<svg xmlns="http://www.w3.org/2000/svg" xmlns:xlink="http://www.w3.org/1999/xlink" width="500" zoomAndPan="magnify" viewBox="0 0 375 374.999991" height="500" preserveAspectRatio="xMidYMid meet" version="1.0"><defs><g/><clipPath id="cb45e17ad7"><path d="M 198 37.5 L 331 37.5 L 331 245 L 198 245 Z M 198 37.5 " clip-rule="nonzero"/></clipPath><clipPath id="7ef4224774"><path d="M 259 132 L 370.171875 132 L 370.171875 258 L 259 258 Z M 259 132 " clip-rule="nonzero"/></clipPath><clipPath id="30adb73e3a"><path d="M 44 37.5 L 177 37.5 L 177 245 L 44 245 Z M 44 37.5 " clip-rule="nonzero"/></clipPath></defs><g clip-path="url(#cb45e17ad7)"><path fill="#ffde59" d="M 330.839844 110.414062 C 258.339844 116.691406 214.472656 180.109375 262.359375 244.257812 C 224.65625 219.191406 197.363281 179.269531 198.433594 132.957031 C 199.390625 92.539062 222.207031 56.0625 256.617188 37.539062 C 238.703125 60.273438 212.484375 112.519531 264.042969 107.65625 C 286.972656 105.4375 314.226562 101.648438 330.839844 110.414062 " fill-opacity="1" fill-rule="evenodd"/></g><g clip-path="url(#7ef4224774)"><path fill="#5e17eb" d="M 370.035156 164.535156 C 310.324219 183.402344 278.207031 217.964844 292.332031 258 C 245.441406 221.945312 250.722656 153.894531 300.371094 132.574219 C 271.050781 165.144531 280.65625 179 319.355469 170.351562 C 337.730469 166.253906 357.671875 161.816406 370.035156 164.535156 " fill-opacity="1" fill-rule="evenodd"/></g><path fill="#ffde59" d="M 268.714844 64.558594 C 276.371094 66.207031 281.269531 73.746094 279.660156 81.402344 C 278.015625 89.054688 270.511719 93.953125 262.820312 92.347656 C 255.164062 90.703125 250.265625 83.160156 251.871094 75.507812 C 253.519531 67.8125 261.058594 62.914062 268.714844 64.558594 " fill-opacity="1" fill-rule="evenodd"/><path fill="#5e17eb" d="M 309.210938 148.800781 C 313.613281 149.722656 316.410156 154.046875 315.453125 158.449219 C 314.535156 162.847656 310.207031 165.644531 305.804688 164.6875 C 301.402344 163.769531 298.609375 159.441406 299.566406 155.042969 C 300.484375 150.679688 304.8125 147.882812 309.210938 148.800781 " fill-opacity="1" fill-rule="evenodd"/><g clip-path="url(#30adb73e3a)"><path fill="#00bf63" d="M 44.25 110.414062 C 116.75 116.691406 160.617188 180.109375 112.730469 244.257812 C 150.433594 219.191406 177.726562 179.269531 176.65625 132.957031 C 175.699219 92.5 152.882812 56.023438 118.472656 37.5 C 136.386719 60.234375 162.605469 112.480469 111.046875 107.617188 C 88.117188 105.4375 60.863281 101.648438 44.25 110.414062 " fill-opacity="1" fill-rule="evenodd"/></g><path fill="#ff3131" d="M 5.054688 164.535156 C 64.765625 183.402344 96.882812 217.964844 82.757812 258 C 129.648438 221.945312 124.367188 153.894531 74.71875 132.574219 C 104.039062 165.144531 94.433594 179 55.734375 170.351562 C 37.398438 166.253906 17.417969 161.816406 5.054688 164.535156 " fill-opacity="1" fill-rule="evenodd"/><path fill="#00bf63" d="M 106.375 64.558594 C 98.71875 66.207031 93.820312 73.746094 95.429688 81.402344 C 97.074219 89.054688 104.613281 93.953125 112.269531 92.347656 C 119.925781 90.703125 124.824219 83.160156 123.21875 75.507812 C 121.609375 67.8125 114.070312 62.914062 106.375 64.558594 " fill-opacity="1" fill-rule="evenodd"/><path fill="#ff3131" d="M 65.914062 148.800781 C 61.511719 149.722656 58.71875 154.046875 59.675781 158.449219 C 60.59375 162.847656 64.921875 165.644531 69.324219 164.6875 C 73.722656 163.769531 76.519531 159.441406 75.5625 155.042969 C 74.605469 150.679688 70.28125 147.882812 65.914062 148.800781 " fill-opacity="1" fill-rule="evenodd"/><g fill="#f49f1c" fill-opacity="1"><g transform="translate(60.409786, 292.294099)"><g><path d="M 2.941406 0 L 22.859375 0 C 24.160156 0 24.621094 -0.460938 24.621094 -1.765625 L 24.621094 -5.589844 C 24.621094 -6.933594 24.160156 -7.351562 22.859375 -7.351562 L 12.226562 -7.351562 L 23.824219 -23.699219 C 24.203125 -24.246094 24.414062 -24.75 24.414062 -25.546875 L 24.414062 -28.070312 C 24.414062 -29.371094 23.949219 -29.832031 22.648438 -29.832031 L 3.152344 -29.832031 C 1.847656 -29.832031 1.386719 -29.371094 1.386719 -28.070312 L 1.386719 -24.285156 C 1.386719 -22.941406 1.847656 -22.523438 3.152344 -22.523438 L 13.402344 -22.523438 L 1.765625 -6.09375 C 1.386719 -5.589844 1.175781 -5.042969 1.175781 -4.328125 L 1.175781 -1.765625 C 1.175781 -0.460938 1.640625 0 2.941406 0 Z M 2.941406 0 "/></g></g></g><g fill="#f49f1c" fill-opacity="1"><g transform="translate(88.224229, 292.294099)"><g><path d="M 11.679688 0.628906 C 16.511719 0.628906 19.582031 -0.757812 21.175781 -3.53125 C 21.808594 -4.707031 21.511719 -5.421875 20.378906 -5.964844 L 17.480469 -7.226562 C 16.136719 -7.859375 15.714844 -7.605469 15.125 -6.765625 C 14.539062 -6.007812 13.570312 -5.253906 11.765625 -5.253906 C 10.125 -5.253906 9.035156 -6.007812 9.035156 -7.984375 L 9.035156 -8.78125 L 19.957031 -8.78125 C 21.679688 -8.78125 22.226562 -9.621094 22.226562 -10.96875 L 22.226562 -13.277344 C 22.226562 -18.320312 18.992188 -22.480469 11.722656 -22.480469 C 4.917969 -22.480469 1.21875 -19.078125 1.21875 -12.816406 L 1.21875 -9.074219 C 1.21875 -3.570312 4.160156 0.628906 11.679688 0.628906 Z M 9.035156 -13.867188 L 9.035156 -14.414062 C 9.035156 -16.09375 9.875 -16.933594 11.722656 -16.933594 C 13.613281 -16.933594 14.414062 -16.09375 14.414062 -14.414062 L 14.414062 -13.867188 Z M 9.035156 -13.867188 "/></g></g></g><g fill="#f49f1c" fill-opacity="1"><g transform="translate(113.433729, 292.294099)"><g><path d="M 2.773438 0 L 18.152344 0 C 19.371094 0 19.75 -0.421875 19.75 -1.597656 L 19.75 -5.042969 C 19.75 -6.261719 19.371094 -6.640625 18.152344 -6.640625 L 10.671875 -6.640625 L 18.699219 -15.085938 C 19.285156 -15.714844 19.539062 -16.050781 19.539062 -16.976562 L 19.539062 -20.253906 C 19.539062 -21.429688 19.117188 -21.851562 17.941406 -21.851562 L 2.984375 -21.851562 C 1.765625 -21.851562 1.386719 -21.429688 1.386719 -20.253906 L 1.386719 -16.808594 C 1.386719 -15.589844 1.765625 -15.210938 2.984375 -15.210938 L 9.582031 -15.210938 L 1.765625 -6.554688 C 1.261719 -6.007812 1.132812 -5.796875 1.132812 -4.875 L 1.132812 -1.597656 C 1.132812 -0.421875 1.554688 0 2.773438 0 Z M 2.773438 0 "/></g></g></g><g fill="#f49f1c" fill-opacity="1"><g transform="translate(136.290382, 292.294099)"><g><path d="M 3.445312 0 L 8.066406 0 C 9.242188 0 9.664062 -0.421875 9.664062 -1.597656 L 9.664062 -15.253906 C 9.832031 -15.292969 10.714844 -15.460938 11.640625 -15.460938 C 13.320312 -15.460938 14.160156 -14.707031 14.160156 -13.109375 L 14.160156 -1.597656 C 14.160156 -0.421875 14.582031 0 15.800781 0 L 20.378906 0 C 21.597656 0 21.976562 -0.421875 21.976562 -1.597656 L 21.976562 -13.445312 C 21.976562 -19.117188 18.992188 -22.480469 12.523438 -22.480469 C 11.21875 -22.480469 10 -22.355469 9.664062 -22.3125 L 9.664062 -29.496094 C 9.664062 -30.671875 9.242188 -31.09375 8.066406 -31.09375 L 3.445312 -31.09375 C 2.269531 -31.09375 1.847656 -30.671875 1.847656 -29.496094 L 1.847656 -1.597656 C 1.847656 -0.421875 2.269531 0 3.445312 0 Z M 3.445312 0 "/></g></g></g><g fill="#f49f1c" fill-opacity="1"><g transform="translate(161.878016, 292.294099)"><g><path d="M 10.96875 0.628906 C 14.789062 0.628906 17.605469 0.167969 19.285156 -0.546875 C 20.503906 -1.050781 20.839844 -1.511719 20.839844 -3.066406 L 20.839844 -13.402344 C 20.839844 -18.78125 18.53125 -22.480469 11.09375 -22.480469 C 6.386719 -22.480469 3.277344 -21.007812 1.765625 -18.109375 C 1.132812 -16.890625 1.511719 -16.304688 2.648438 -15.800781 L 5.628906 -14.582031 C 6.976562 -14.035156 7.394531 -14.328125 7.984375 -15.085938 C 8.570312 -15.882812 9.328125 -16.554688 10.714844 -16.554688 C 12.4375 -16.554688 13.066406 -15.757812 13.066406 -14.371094 L 13.066406 -13.277344 C 12.605469 -13.277344 11.890625 -13.320312 11.175781 -13.320312 C 3.992188 -13.320312 0.964844 -11.808594 0.964844 -6.34375 C 0.964844 -1.640625 3.066406 0.628906 10.96875 0.628906 Z M 10.757812 -4.707031 C 8.992188 -4.707031 8.613281 -5.421875 8.613281 -6.386719 C 8.613281 -7.3125 9.035156 -8.109375 10.839844 -8.109375 C 11.554688 -8.109375 12.523438 -8.066406 13.066406 -8.066406 L 13.066406 -5.042969 C 13.066406 -4.875 12.984375 -4.832031 12.859375 -4.832031 C 12.4375 -4.75 11.847656 -4.707031 10.757812 -4.707031 Z M 10.757812 -4.707031 "/></g></g></g><g fill="#f49f1c" fill-opacity="1"><g transform="translate(186.247213, 292.294099)"><g><path d="M 10.378906 0 L 15.125 0 C 16.472656 0 16.890625 -0.460938 16.890625 -1.765625 L 16.890625 -22.523438 L 23.152344 -22.523438 C 24.496094 -22.523438 24.917969 -22.941406 24.917969 -24.285156 L 24.917969 -28.070312 C 24.917969 -29.371094 24.496094 -29.832031 23.152344 -29.832031 L 2.351562 -29.832031 C 1.007812 -29.832031 0.589844 -29.371094 0.589844 -28.070312 L 0.589844 -24.285156 C 0.589844 -22.941406 1.007812 -22.523438 2.351562 -22.523438 L 8.613281 -22.523438 L 8.613281 -1.765625 C 8.613281 -0.460938 9.035156 0 10.378906 0 Z M 10.378906 0 "/></g></g></g><g fill="#f49f1c" fill-opacity="1"><g transform="translate(213.725521, 292.294099)"><g><path d="M 10.96875 0.628906 C 14.789062 0.628906 17.605469 0.167969 19.285156 -0.546875 C 20.503906 -1.050781 20.839844 -1.511719 20.839844 -3.066406 L 20.839844 -13.402344 C 20.839844 -18.78125 18.53125 -22.480469 11.09375 -22.480469 C 6.386719 -22.480469 3.277344 -21.007812 1.765625 -18.109375 C 1.132812 -16.890625 1.511719 -16.304688 2.648438 -15.800781 L 5.628906 -14.582031 C 6.976562 -14.035156 7.394531 -14.328125 7.984375 -15.085938 C 8.570312 -15.882812 9.328125 -16.554688 10.714844 -16.554688 C 12.4375 -16.554688 13.066406 -15.757812 13.066406 -14.371094 L 13.066406 -13.277344 C 12.605469 -13.277344 11.890625 -13.320312 11.175781 -13.320312 C 3.992188 -13.320312 0.964844 -11.808594 0.964844 -6.34375 C 0.964844 -1.640625 3.066406 0.628906 10.96875 0.628906 Z M 10.757812 -4.707031 C 8.992188 -4.707031 8.613281 -5.421875 8.613281 -6.386719 C 8.613281 -7.3125 9.035156 -8.109375 10.839844 -8.109375 C 11.554688 -8.109375 12.523438 -8.066406 13.066406 -8.066406 L 13.066406 -5.042969 C 13.066406 -4.875 12.984375 -4.832031 12.859375 -4.832031 C 12.4375 -4.75 11.847656 -4.707031 10.757812 -4.707031 Z M 10.757812 -4.707031 "/></g></g></g><g fill="#f49f1c" fill-opacity="1"><g transform="translate(238.094717, 292.294099)"><g><path d="M 3.488281 0 L 8.066406 0 C 9.285156 0 9.707031 -0.421875 9.707031 -1.597656 L 9.707031 -29.496094 C 9.707031 -30.671875 9.285156 -31.09375 8.066406 -31.09375 L 3.488281 -31.09375 C 2.269531 -31.09375 1.890625 -30.671875 1.890625 -29.496094 L 1.890625 -1.597656 C 1.890625 -0.421875 2.269531 0 3.488281 0 Z M 3.488281 0 "/></g></g></g><g fill="#f49f1c" fill-opacity="1"><g transform="translate(251.623999, 292.294099)"><g><path d="M 11.679688 0.628906 C 16.511719 0.628906 19.582031 -0.757812 21.175781 -3.53125 C 21.808594 -4.707031 21.511719 -5.421875 20.378906 -5.964844 L 17.480469 -7.226562 C 16.136719 -7.859375 15.714844 -7.605469 15.125 -6.765625 C 14.539062 -6.007812 13.570312 -5.253906 11.765625 -5.253906 C 10.125 -5.253906 9.035156 -6.007812 9.035156 -7.984375 L 9.035156 -8.78125 L 19.957031 -8.78125 C 21.679688 -8.78125 22.226562 -9.621094 22.226562 -10.96875 L 22.226562 -13.277344 C 22.226562 -18.320312 18.992188 -22.480469 11.722656 -22.480469 C 4.917969 -22.480469 1.21875 -19.078125 1.21875 -12.816406 L 1.21875 -9.074219 C 1.21875 -3.570312 4.160156 0.628906 11.679688 0.628906 Z M 9.035156 -13.867188 L 9.035156 -14.414062 C 9.035156 -16.09375 9.875 -16.933594 11.722656 -16.933594 C 13.613281 -16.933594 14.414062 -16.09375 14.414062 -14.414062 L 14.414062 -13.867188 Z M 9.035156 -13.867188 "/></g></g></g><g fill="#f49f1c" fill-opacity="1"><g transform="translate(276.833496, 292.294099)"><g><path d="M 3.363281 0 L 7.984375 0 C 9.160156 0 9.582031 -0.421875 9.582031 -1.597656 L 9.582031 -15.085938 C 9.582031 -15.167969 9.621094 -15.210938 9.707031 -15.253906 C 10.253906 -15.378906 10.839844 -15.460938 11.554688 -15.460938 C 13.277344 -15.460938 14.078125 -14.789062 14.078125 -13.109375 L 14.078125 -1.597656 C 14.078125 -0.421875 14.496094 0 15.714844 0 L 20.296875 0 C 21.511719 0 21.890625 -0.421875 21.890625 -1.597656 L 21.890625 -13.445312 C 21.890625 -19.117188 18.910156 -22.480469 12.4375 -22.480469 C 8.109375 -22.480469 5.335938 -21.640625 3.488281 -20.925781 C 2.101562 -20.335938 1.765625 -19.789062 1.765625 -18.402344 L 1.765625 -1.597656 C 1.765625 -0.421875 2.183594 0 3.363281 0 Z M 3.363281 0 "/></g></g></g><g fill="#f49f1c" fill-opacity="1"><g transform="translate(302.337105, 292.294099)"><g><path d="M 14.496094 0 C 15.757812 0 16.136719 -0.460938 16.136719 -1.722656 L 16.136719 -5.335938 C 16.136719 -6.554688 15.757812 -6.976562 14.496094 -6.976562 C 12.4375 -6.976562 11.640625 -7.605469 11.640625 -9.917969 L 11.640625 -15.460938 L 14.539062 -15.460938 C 15.757812 -15.460938 16.136719 -15.882812 16.136719 -17.101562 L 16.136719 -20.253906 C 16.136719 -21.429688 15.757812 -21.851562 14.539062 -21.851562 L 11.640625 -21.851562 L 11.640625 -25.296875 C 11.640625 -26.472656 11.21875 -26.890625 10 -26.890625 L 5.421875 -26.890625 C 4.203125 -26.890625 3.824219 -26.472656 3.824219 -25.296875 L 3.824219 -21.851562 L 1.976562 -21.851562 C 0.757812 -21.851562 0.378906 -21.429688 0.378906 -20.253906 L 0.378906 -17.101562 C 0.378906 -15.882812 0.757812 -15.460938 1.976562 -15.460938 L 3.824219 -15.460938 L 3.824219 -9.371094 C 3.824219 -2.3125 7.144531 0 14.496094 0 Z M 14.496094 0 "/></g></g></g><g fill="#ff3131" fill-opacity="1"><g transform="translate(34.001376, 324.950112)"><g><path d="M 3.285156 0 L 4.789062 0 C 5.214844 0 5.351562 -0.144531 5.351562 -0.558594 L 5.351562 -7.132812 L 7.332031 -7.132812 C 7.757812 -7.132812 7.890625 -7.265625 7.890625 -7.691406 L 7.890625 -8.890625 C 7.890625 -9.300781 7.757812 -9.449219 7.332031 -9.449219 L 0.746094 -9.449219 C 0.320312 -9.449219 0.1875 -9.300781 0.1875 -8.890625 L 0.1875 -7.691406 C 0.1875 -7.265625 0.320312 -7.132812 0.746094 -7.132812 L 2.726562 -7.132812 L 2.726562 -0.558594 C 2.726562 -0.144531 2.859375 0 3.285156 0 Z M 3.285156 0 "/></g></g></g><g fill="#ff3131" fill-opacity="1"><g transform="translate(48.465343, 324.950112)"><g><path d="M 1.089844 0 L 2.554688 0 C 2.925781 0 3.0625 -0.132812 3.0625 -0.503906 L 3.0625 -4.832031 C 3.113281 -4.84375 3.394531 -4.898438 3.6875 -4.898438 C 4.21875 -4.898438 4.484375 -4.65625 4.484375 -4.152344 L 4.484375 -0.503906 C 4.484375 -0.132812 4.617188 0 5.003906 0 L 6.453125 0 C 6.839844 0 6.960938 -0.132812 6.960938 -0.503906 L 6.960938 -4.257812 C 6.960938 -6.054688 6.015625 -7.121094 3.964844 -7.121094 C 3.554688 -7.121094 3.167969 -7.078125 3.0625 -7.066406 L 3.0625 -9.34375 C 3.0625 -9.714844 2.925781 -9.847656 2.554688 -9.847656 L 1.089844 -9.847656 C 0.71875 -9.847656 0.585938 -9.714844 0.585938 -9.34375 L 0.585938 -0.503906 C 0.585938 -0.132812 0.71875 0 1.089844 0 Z M 1.089844 0 "/></g></g></g><g fill="#ff3131" fill-opacity="1"><g transform="translate(62.330843, 324.950112)"><g><path d="M 3.699219 0.199219 C 5.230469 0.199219 6.203125 -0.238281 6.707031 -1.117188 C 6.90625 -1.492188 6.8125 -1.714844 6.453125 -1.890625 L 5.535156 -2.289062 C 5.109375 -2.488281 4.976562 -2.410156 4.789062 -2.140625 C 4.605469 -1.902344 4.296875 -1.664062 3.726562 -1.664062 C 3.207031 -1.664062 2.859375 -1.902344 2.859375 -2.527344 L 2.859375 -2.78125 L 6.320312 -2.78125 C 6.867188 -2.78125 7.039062 -3.046875 7.039062 -3.472656 L 7.039062 -4.207031 C 7.039062 -5.800781 6.015625 -7.121094 3.710938 -7.121094 C 1.558594 -7.121094 0.386719 -6.042969 0.386719 -4.058594 L 0.386719 -2.875 C 0.386719 -1.132812 1.316406 0.199219 3.699219 0.199219 Z M 2.859375 -4.390625 L 2.859375 -4.566406 C 2.859375 -5.097656 3.128906 -5.363281 3.710938 -5.363281 C 4.3125 -5.363281 4.566406 -5.097656 4.566406 -4.566406 L 4.566406 -4.390625 Z M 2.859375 -4.390625 "/></g></g></g><g fill="#ff3131" fill-opacity="1"><g transform="translate(76.076651, 324.950112)"><g/></g></g><g fill="#ff3131" fill-opacity="1"><g transform="translate(84.861874, 324.950112)"><g><path d="M 4.246094 0.199219 C 6.601562 0.199219 8.371094 -0.878906 8.371094 -2.835938 C 8.371094 -5.351562 6.375 -5.722656 4.832031 -5.933594 C 3.871094 -6.054688 3.085938 -6.175781 3.085938 -6.746094 C 3.085938 -7.210938 3.445312 -7.4375 4.351562 -7.4375 C 4.964844 -7.4375 5.441406 -7.253906 5.707031 -6.746094 C 5.910156 -6.359375 6.054688 -6.308594 6.425781 -6.46875 L 7.746094 -7.039062 C 8.144531 -7.199219 8.25 -7.398438 8.0625 -7.785156 C 7.4375 -9.0625 6.320312 -9.648438 4.351562 -9.648438 C 1.808594 -9.648438 0.398438 -8.421875 0.398438 -6.667969 C 0.398438 -4.085938 2.582031 -3.820312 4.136719 -3.59375 C 5.015625 -3.472656 5.707031 -3.339844 5.707031 -2.808594 C 5.707031 -2.234375 5.164062 -2.050781 4.273438 -2.050781 C 3.527344 -2.050781 3.007812 -2.289062 2.769531 -2.753906 C 2.554688 -3.140625 2.382812 -3.179688 1.984375 -3.046875 L 0.730469 -2.59375 C 0.347656 -2.449219 0.238281 -2.261719 0.371094 -1.863281 C 0.878906 -0.480469 2.261719 0.199219 4.246094 0.199219 Z M 4.246094 0.199219 "/></g></g></g><g fill="#ff3131" fill-opacity="1"><g transform="translate(99.911002, 324.950112)"><g><path d="M 1.078125 2.914062 L 2.527344 2.914062 C 2.914062 2.914062 3.046875 2.792969 3.046875 2.410156 L 3.046875 0.132812 C 3.300781 0.160156 3.566406 0.199219 3.847656 0.199219 C 5.894531 0.199219 6.945312 -0.851562 6.945312 -2.808594 L 6.945312 -4.257812 C 6.945312 -6.054688 5.988281 -7.121094 3.898438 -7.121094 C 2.527344 -7.121094 1.691406 -6.894531 1.117188 -6.667969 C 0.664062 -6.480469 0.570312 -6.335938 0.570312 -5.894531 L 0.570312 2.410156 C 0.570312 2.792969 0.691406 2.914062 1.078125 2.914062 Z M 3.644531 -1.941406 C 3.40625 -1.941406 3.167969 -1.984375 3.046875 -2.007812 L 3.046875 -4.832031 C 3.046875 -4.871094 3.0625 -4.882812 3.101562 -4.898438 C 3.234375 -4.9375 3.421875 -4.976562 3.710938 -4.976562 C 4.191406 -4.976562 4.472656 -4.738281 4.472656 -4.3125 L 4.472656 -2.675781 C 4.472656 -2.183594 4.207031 -1.941406 3.644531 -1.941406 Z M 3.644531 -1.941406 "/></g></g></g><g fill="#ff3131" fill-opacity="1"><g transform="translate(113.64352, 324.950112)"><g><path d="M 1.078125 0 L 2.527344 0 C 2.914062 0 3.046875 -0.132812 3.046875 -0.503906 L 3.046875 -4.632812 C 3.046875 -4.671875 3.0625 -4.710938 3.113281 -4.722656 C 3.300781 -4.765625 3.5 -4.777344 3.726562 -4.777344 L 4.230469 -4.777344 C 4.617188 -4.777344 4.738281 -4.898438 4.738281 -5.28125 L 4.738281 -6.414062 C 4.738281 -6.785156 4.617188 -6.917969 4.230469 -6.917969 L 3.820312 -6.917969 C 2.527344 -6.917969 1.636719 -6.695312 1.117188 -6.492188 C 0.664062 -6.320312 0.570312 -6.132812 0.570312 -5.695312 L 0.570312 -0.503906 C 0.570312 -0.132812 0.691406 0 1.078125 0 Z M 1.078125 0 "/></g></g></g><g fill="#ff3131" fill-opacity="1"><g transform="translate(124.902392, 324.950112)"><g><path d="M 1.492188 -7.773438 L 2.140625 -7.773438 C 2.902344 -7.773438 3.128906 -7.984375 3.128906 -8.730469 L 3.128906 -8.875 C 3.128906 -9.621094 2.902344 -9.847656 2.140625 -9.847656 L 1.492188 -9.847656 C 0.730469 -9.847656 0.503906 -9.621094 0.503906 -8.875 L 0.503906 -8.730469 C 0.503906 -7.984375 0.730469 -7.773438 1.492188 -7.773438 Z M 1.089844 0 L 2.542969 0 C 2.925781 0 3.0625 -0.132812 3.0625 -0.503906 L 3.0625 -6.414062 C 3.0625 -6.785156 2.925781 -6.917969 2.542969 -6.917969 L 1.089844 -6.917969 C 0.707031 -6.917969 0.585938 -6.785156 0.585938 -6.414062 L 0.585938 -0.503906 C 0.585938 -0.132812 0.707031 0 1.089844 0 Z M 1.089844 0 "/></g></g></g><g fill="#ff3131" fill-opacity="1"><g transform="translate(134.924441, 324.950112)"><g><path d="M 1.066406 0 L 2.527344 0 C 2.902344 0 3.035156 -0.132812 3.035156 -0.503906 L 3.035156 -4.777344 C 3.035156 -4.804688 3.046875 -4.816406 3.074219 -4.832031 C 3.246094 -4.871094 3.433594 -4.898438 3.660156 -4.898438 C 4.207031 -4.898438 4.457031 -4.683594 4.457031 -4.152344 L 4.457031 -0.503906 C 4.457031 -0.132812 4.589844 0 4.976562 0 L 6.425781 0 C 6.8125 0 6.933594 -0.132812 6.933594 -0.503906 L 6.933594 -4.257812 C 6.933594 -6.054688 5.988281 -7.121094 3.9375 -7.121094 C 2.566406 -7.121094 1.691406 -6.851562 1.105469 -6.628906 C 0.664062 -6.441406 0.558594 -6.269531 0.558594 -5.828125 L 0.558594 -0.503906 C 0.558594 -0.132812 0.691406 0 1.066406 0 Z M 1.066406 0 "/></g></g></g><g fill="#ff3131" fill-opacity="1"><g transform="translate(148.763347, 324.950112)"><g><path d="M 4.589844 0 C 4.992188 0 5.109375 -0.144531 5.109375 -0.546875 L 5.109375 -1.691406 C 5.109375 -2.074219 4.992188 -2.210938 4.589844 -2.210938 C 3.9375 -2.210938 3.6875 -2.410156 3.6875 -3.140625 L 3.6875 -4.898438 L 4.605469 -4.898438 C 4.992188 -4.898438 5.109375 -5.03125 5.109375 -5.417969 L 5.109375 -6.414062 C 5.109375 -6.785156 4.992188 -6.917969 4.605469 -6.917969 L 3.6875 -6.917969 L 3.6875 -8.011719 C 3.6875 -8.382812 3.554688 -8.515625 3.167969 -8.515625 L 1.714844 -8.515625 C 1.332031 -8.515625 1.210938 -8.382812 1.210938 -8.011719 L 1.210938 -6.917969 L 0.625 -6.917969 C 0.238281 -6.917969 0.121094 -6.785156 0.121094 -6.414062 L 0.121094 -5.417969 C 0.121094 -5.03125 0.238281 -4.898438 0.625 -4.898438 L 1.210938 -4.898438 L 1.210938 -2.96875 C 1.210938 -0.730469 2.261719 0 4.589844 0 Z M 4.589844 0 "/></g></g></g><g fill="#ff3131" fill-opacity="1"><g transform="translate(160.554187, 324.950112)"><g/></g></g><g fill="#ff3131" fill-opacity="1"><g transform="translate(169.339407, 324.950112)"><g><path d="M 4.566406 0.199219 C 7.1875 0.199219 8.648438 -1.222656 8.648438 -3.511719 L 8.648438 -5.933594 C 8.648438 -8.222656 7.1875 -9.648438 4.566406 -9.648438 C 1.929688 -9.648438 0.480469 -8.222656 0.480469 -5.933594 L 0.480469 -3.511719 C 0.480469 -1.222656 1.929688 0.199219 4.566406 0.199219 Z M 4.566406 -2.128906 C 3.632812 -2.128906 3.101562 -2.566406 3.101562 -3.40625 L 3.101562 -6.042969 C 3.101562 -6.878906 3.632812 -7.320312 4.566406 -7.320312 C 5.484375 -7.320312 6.015625 -6.878906 6.015625 -6.042969 L 6.015625 -3.40625 C 6.015625 -2.566406 5.484375 -2.128906 4.566406 -2.128906 Z M 4.566406 -2.128906 "/></g></g></g><g fill="#ff3131" fill-opacity="1"><g transform="translate(184.853999, 324.950112)"><g><path d="M 1.691406 0 L 3.113281 0 C 3.511719 0 3.644531 -0.132812 3.644531 -0.503906 L 3.644531 -4.898438 L 4.566406 -4.898438 C 4.949219 -4.898438 5.070312 -5.03125 5.070312 -5.417969 L 5.070312 -6.414062 C 5.070312 -6.785156 4.949219 -6.917969 4.566406 -6.917969 L 3.644531 -6.917969 L 3.644531 -6.972656 C 3.644531 -7.546875 3.898438 -7.824219 4.550781 -7.824219 C 4.949219 -7.824219 5.070312 -7.957031 5.070312 -8.355469 L 5.070312 -9.328125 C 5.070312 -9.714844 4.949219 -9.847656 4.550781 -9.847656 L 4.3125 -9.847656 C 2.328125 -9.835938 1.171875 -8.941406 1.171875 -6.945312 L 1.171875 -6.917969 L 0.730469 -6.917969 C 0.347656 -6.917969 0.226562 -6.785156 0.226562 -6.414062 L 0.226562 -5.417969 C 0.226562 -5.03125 0.347656 -4.898438 0.730469 -4.898438 L 1.171875 -4.898438 L 1.171875 -0.503906 C 1.171875 -0.132812 1.289062 0 1.691406 0 Z M 1.691406 0 "/></g></g></g><g fill="#ff3131" fill-opacity="1"><g transform="translate(196.458639, 324.950112)"><g/></g></g><g fill="#ff3131" fill-opacity="1"><g transform="translate(205.243858, 324.950112)"><g><path d="M 4.566406 0.199219 C 7.1875 0.199219 8.648438 -1.222656 8.648438 -3.101562 L 8.648438 -4.855469 C 8.648438 -5.28125 8.503906 -5.429688 8.089844 -5.429688 L 4.722656 -5.429688 C 4.3125 -5.429688 4.164062 -5.28125 4.164062 -4.855469 L 4.164062 -3.859375 C 4.164062 -3.445312 4.3125 -3.300781 4.722656 -3.300781 L 6 -3.300781 L 6 -3.035156 C 6 -2.460938 5.457031 -2.128906 4.566406 -2.128906 C 3.511719 -2.128906 3.101562 -2.582031 3.101562 -3.5 L 3.101562 -5.949219 C 3.101562 -6.867188 3.511719 -7.320312 4.566406 -7.320312 C 5.324219 -7.320312 5.707031 -7.054688 5.949219 -6.453125 C 6.09375 -6.042969 6.253906 -5.976562 6.667969 -6.09375 L 8.089844 -6.601562 C 8.476562 -6.746094 8.582031 -6.933594 8.4375 -7.320312 C 7.890625 -8.808594 6.613281 -9.648438 4.566406 -9.648438 C 1.941406 -9.648438 0.480469 -8.222656 0.480469 -5.933594 L 0.480469 -3.511719 C 0.480469 -1.222656 1.941406 0.199219 4.566406 0.199219 Z M 4.566406 0.199219 "/></g></g></g><g fill="#ff3131" fill-opacity="1"><g transform="translate(220.691951, 324.950112)"><g><path d="M 3.699219 0.199219 C 5.882812 0.199219 7 -0.90625 7 -2.714844 L 7 -4.207031 C 7 -6.015625 5.882812 -7.121094 3.699219 -7.121094 C 1.542969 -7.121094 0.398438 -6.015625 0.398438 -4.207031 L 0.398438 -2.714844 C 0.398438 -0.90625 1.542969 0.199219 3.699219 0.199219 Z M 3.699219 -1.941406 C 3.140625 -1.941406 2.859375 -2.183594 2.859375 -2.648438 L 2.859375 -4.273438 C 2.859375 -4.738281 3.140625 -4.992188 3.699219 -4.992188 C 4.257812 -4.992188 4.539062 -4.738281 4.539062 -4.273438 L 4.539062 -2.648438 C 4.539062 -2.183594 4.257812 -1.941406 3.699219 -1.941406 Z M 3.699219 -1.941406 "/></g></g></g><g fill="#ff3131" fill-opacity="1"><g transform="translate(234.477656, 324.950112)"><g><path d="M 3.699219 0.199219 C 5.882812 0.199219 7 -0.90625 7 -2.714844 L 7 -4.207031 C 7 -6.015625 5.882812 -7.121094 3.699219 -7.121094 C 1.542969 -7.121094 0.398438 -6.015625 0.398438 -4.207031 L 0.398438 -2.714844 C 0.398438 -0.90625 1.542969 0.199219 3.699219 0.199219 Z M 3.699219 -1.941406 C 3.140625 -1.941406 2.859375 -2.183594 2.859375 -2.648438 L 2.859375 -4.273438 C 2.859375 -4.738281 3.140625 -4.992188 3.699219 -4.992188 C 4.257812 -4.992188 4.539062 -4.738281 4.539062 -4.273438 L 4.539062 -2.648438 C 4.539062 -2.183594 4.257812 -1.941406 3.699219 -1.941406 Z M 3.699219 -1.941406 "/></g></g></g><g fill="#ff3131" fill-opacity="1"><g transform="translate(248.26336, 324.950112)"><g><path d="M 3.488281 0.199219 C 4.84375 0.199219 5.65625 -0.0390625 6.226562 -0.265625 C 6.679688 -0.453125 6.785156 -0.585938 6.785156 -1.023438 L 6.785156 -9.34375 C 6.785156 -9.714844 6.652344 -9.847656 6.269531 -9.847656 L 4.816406 -9.847656 C 4.429688 -9.847656 4.3125 -9.714844 4.3125 -9.34375 L 4.3125 -7.078125 C 4.046875 -7.09375 3.753906 -7.121094 3.40625 -7.121094 C 1.4375 -7.121094 0.398438 -6.066406 0.398438 -4.125 L 0.398438 -2.675781 C 0.398438 -0.863281 1.371094 0.199219 3.488281 0.199219 Z M 3.644531 -1.957031 C 3.152344 -1.957031 2.875 -2.183594 2.875 -2.609375 L 2.875 -4.246094 C 2.875 -4.738281 3.140625 -4.976562 3.710938 -4.976562 C 3.953125 -4.976562 4.179688 -4.9375 4.3125 -4.910156 L 4.3125 -2.074219 C 4.3125 -2.035156 4.3125 -2.023438 4.273438 -2.007812 C 4.136719 -1.984375 3.914062 -1.957031 3.644531 -1.957031 Z M 3.644531 -1.957031 "/></g></g></g><g fill="#ff3131" fill-opacity="1"><g transform="translate(261.995871, 324.950112)"><g/></g></g><g fill="#ff3131" fill-opacity="1"><g transform="translate(270.781091, 324.950112)"><g><path d="M 4.566406 0.199219 C 6.613281 0.199219 7.890625 -0.640625 8.4375 -2.128906 C 8.582031 -2.515625 8.476562 -2.714844 8.089844 -2.847656 L 6.667969 -3.351562 C 6.28125 -3.5 6.109375 -3.40625 5.949219 -2.996094 C 5.734375 -2.421875 5.308594 -2.128906 4.566406 -2.128906 C 3.511719 -2.128906 3.101562 -2.582031 3.101562 -3.5 L 3.101562 -5.949219 C 3.101562 -6.867188 3.511719 -7.320312 4.566406 -7.320312 C 5.324219 -7.320312 5.707031 -7.054688 5.949219 -6.453125 C 6.09375 -6.042969 6.253906 -5.976562 6.667969 -6.09375 L 8.089844 -6.601562 C 8.476562 -6.746094 8.582031 -6.933594 8.4375 -7.320312 C 7.890625 -8.808594 6.613281 -9.648438 4.566406 -9.648438 C 1.941406 -9.648438 0.480469 -8.222656 0.480469 -5.933594 L 0.480469 -3.511719 C 0.480469 -1.222656 1.941406 0.199219 4.566406 0.199219 Z M 4.566406 0.199219 "/></g></g></g><g fill="#ff3131" fill-opacity="1"><g transform="translate(285.883423, 324.950112)"><g><path d="M 3.472656 0.199219 C 4.683594 0.199219 5.574219 0.0546875 6.109375 -0.171875 C 6.492188 -0.332031 6.601562 -0.480469 6.601562 -0.972656 L 6.601562 -4.246094 C 6.601562 -5.949219 5.867188 -7.121094 3.511719 -7.121094 C 2.023438 -7.121094 1.039062 -6.652344 0.558594 -5.734375 C 0.359375 -5.351562 0.480469 -5.164062 0.839844 -5.003906 L 1.785156 -4.617188 C 2.210938 -4.445312 2.34375 -4.539062 2.527344 -4.777344 C 2.714844 -5.03125 2.953125 -5.242188 3.394531 -5.242188 C 3.9375 -5.242188 4.136719 -4.992188 4.136719 -4.550781 L 4.136719 -4.207031 C 3.992188 -4.207031 3.765625 -4.21875 3.539062 -4.21875 C 1.265625 -4.21875 0.304688 -3.738281 0.304688 -2.007812 C 0.304688 -0.519531 0.972656 0.199219 3.472656 0.199219 Z M 3.40625 -1.492188 C 2.847656 -1.492188 2.726562 -1.714844 2.726562 -2.023438 C 2.726562 -2.316406 2.859375 -2.566406 3.433594 -2.566406 C 3.660156 -2.566406 3.964844 -2.554688 4.136719 -2.554688 L 4.136719 -1.597656 C 4.136719 -1.542969 4.113281 -1.53125 4.070312 -1.53125 C 3.9375 -1.503906 3.753906 -1.492188 3.40625 -1.492188 Z M 3.40625 -1.492188 "/></g></g></g><g fill="#ff3131" fill-opacity="1"><g transform="translate(299.363256, 324.950112)"><g><path d="M 1.078125 0 L 2.527344 0 C 2.914062 0 3.046875 -0.132812 3.046875 -0.503906 L 3.046875 -4.632812 C 3.046875 -4.671875 3.0625 -4.710938 3.113281 -4.722656 C 3.300781 -4.765625 3.5 -4.777344 3.726562 -4.777344 L 4.230469 -4.777344 C 4.617188 -4.777344 4.738281 -4.898438 4.738281 -5.28125 L 4.738281 -6.414062 C 4.738281 -6.785156 4.617188 -6.917969 4.230469 -6.917969 L 3.820312 -6.917969 C 2.527344 -6.917969 1.636719 -6.695312 1.117188 -6.492188 C 0.664062 -6.320312 0.570312 -6.132812 0.570312 -5.695312 L 0.570312 -0.503906 C 0.570312 -0.132812 0.691406 0 1.078125 0 Z M 1.078125 0 "/></g></g></g><g fill="#ff3131" fill-opacity="1"><g transform="translate(310.622135, 324.950112)"><g><path d="M 3.699219 0.199219 C 5.230469 0.199219 6.203125 -0.238281 6.707031 -1.117188 C 6.90625 -1.492188 6.8125 -1.714844 6.453125 -1.890625 L 5.535156 -2.289062 C 5.109375 -2.488281 4.976562 -2.410156 4.789062 -2.140625 C 4.605469 -1.902344 4.296875 -1.664062 3.726562 -1.664062 C 3.207031 -1.664062 2.859375 -1.902344 2.859375 -2.527344 L 2.859375 -2.78125 L 6.320312 -2.78125 C 6.867188 -2.78125 7.039062 -3.046875 7.039062 -3.472656 L 7.039062 -4.207031 C 7.039062 -5.800781 6.015625 -7.121094 3.710938 -7.121094 C 1.558594 -7.121094 0.386719 -6.042969 0.386719 -4.058594 L 0.386719 -2.875 C 0.386719 -1.132812 1.316406 0.199219 3.699219 0.199219 Z M 2.859375 -4.390625 L 2.859375 -4.566406 C 2.859375 -5.097656 3.128906 -5.363281 3.710938 -5.363281 C 4.3125 -5.363281 4.566406 -5.097656 4.566406 -4.566406 L 4.566406 -4.390625 Z M 2.859375 -4.390625 "/></g></g></g><g fill="#ff3131" fill-opacity="1"><g transform="translate(324.367937, 324.950112)"><g><path d="M 3.699219 0.199219 C 5.230469 0.199219 6.203125 -0.238281 6.707031 -1.117188 C 6.90625 -1.492188 6.8125 -1.714844 6.453125 -1.890625 L 5.535156 -2.289062 C 5.109375 -2.488281 4.976562 -2.410156 4.789062 -2.140625 C 4.605469 -1.902344 4.296875 -1.664062 3.726562 -1.664062 C 3.207031 -1.664062 2.859375 -1.902344 2.859375 -2.527344 L 2.859375 -2.78125 L 6.320312 -2.78125 C 6.867188 -2.78125 7.039062 -3.046875 7.039062 -3.472656 L 7.039062 -4.207031 C 7.039062 -5.800781 6.015625 -7.121094 3.710938 -7.121094 C 1.558594 -7.121094 0.386719 -6.042969 0.386719 -4.058594 L 0.386719 -2.875 C 0.386719 -1.132812 1.316406 0.199219 3.699219 0.199219 Z M 2.859375 -4.390625 L 2.859375 -4.566406 C 2.859375 -5.097656 3.128906 -5.363281 3.710938 -5.363281 C 4.3125 -5.363281 4.566406 -5.097656 4.566406 -4.566406 L 4.566406 -4.390625 Z M 2.859375 -4.390625 "/></g></g></g><g fill="#ff3131" fill-opacity="1"><g transform="translate(338.113739, 324.950112)"><g><path d="M 1.078125 0 L 2.527344 0 C 2.914062 0 3.046875 -0.132812 3.046875 -0.503906 L 3.046875 -4.632812 C 3.046875 -4.671875 3.0625 -4.710938 3.113281 -4.722656 C 3.300781 -4.765625 3.5 -4.777344 3.726562 -4.777344 L 4.230469 -4.777344 C 4.617188 -4.777344 4.738281 -4.898438 4.738281 -5.28125 L 4.738281 -6.414062 C 4.738281 -6.785156 4.617188 -6.917969 4.230469 -6.917969 L 3.820312 -6.917969 C 2.527344 -6.917969 1.636719 -6.695312 1.117188 -6.492188 C 0.664062 -6.320312 0.570312 -6.132812 0.570312 -5.695312 L 0.570312 -0.503906 C 0.570312 -0.132812 0.691406 0 1.078125 0 Z M 1.078125 0 "/></g></g></g></svg>