<svg xmlns="http://www.w3.org/2000/svg" xmlns:xlink="http://www.w3.org/1999/xlink" width="500" zoomAndPan="magnify" viewBox="0 0 375 374.999991" height="500" preserveAspectRatio="xMidYMid meet" version="1.0"><defs><g/><clipPath id="73703358dc"><path d="M 198 37.5 L 331 37.5 L 331 245 L 198 245 Z M 198 37.5 " clip-rule="nonzero"/></clipPath><clipPath id="80a634b1ef"><path d="M 259 132 L 370.171875 132 L 370.171875 258 L 259 258 Z M 259 132 " clip-rule="nonzero"/></clipPath><clipPath id="5256101a18"><path d="M 44 37.5 L 177 37.5 L 177 245 L 44 245 Z M 44 37.5 " clip-rule="nonzero"/></clipPath></defs><g clip-path="url(#73703358dc)"><path fill="#ffde59" d="M 330.839844 110.414062 C 258.339844 116.691406 214.472656 180.109375 262.359375 244.257812 C 224.65625 219.191406 197.363281 179.269531 198.433594 132.957031 C 199.390625 92.539062 222.207031 56.0625 256.617188 37.539062 C 238.703125 60.273438 212.484375 112.519531 264.042969 107.65625 C 286.972656 105.4375 314.226562 101.648438 330.839844 110.414062 " fill-opacity="1" fill-rule="evenodd"/></g><g clip-path="url(#80a634b1ef)"><path fill="#5e17eb" d="M 370.035156 164.535156 C 310.324219 183.402344 278.207031 217.964844 292.332031 258 C 245.441406 221.945312 250.722656 153.894531 300.371094 132.574219 C 271.050781 165.144531 280.65625 179 319.355469 170.351562 C 337.730469 166.253906 357.671875 161.816406 370.035156 164.535156 " fill-opacity="1" fill-rule="evenodd"/></g><path fill="#ffde59" d="M 268.714844 64.558594 C 276.371094 66.207031 281.269531 73.746094 279.660156 81.402344 C 278.015625 89.054688 270.511719 93.953125 262.820312 92.347656 C 255.164062 90.703125 250.265625 83.160156 251.871094 75.507812 C 253.519531 67.8125 261.058594 62.914062 268.714844 64.558594 " fill-opacity="1" fill-rule="evenodd"/><path fill="#5e17eb" d="M 309.210938 148.800781 C 313.613281 149.722656 316.410156 154.046875 315.453125 158.449219 C 314.535156 162.847656 310.207031 165.644531 305.804688 164.6875 C 301.402344 163.769531 298.609375 159.441406 299.566406 155.042969 C 300.484375 150.679688 304.8125 147.882812 309.210938 148.800781 " fill-opacity="1" fill-rule="evenodd"/><g clip-path="url(#5256101a18)"><path fill="#00bf63" d="M 44.25 110.414062 C 116.75 116.691406 160.617188 180.109375 112.730469 244.257812 C 150.433594 219.191406 177.726562 179.269531 176.65625 132.957031 C 175.699219 92.5 152.882812 56.023438 118.472656 37.5 C 136.386719 60.234375 162.605469 112.480469 111.046875 107.617188 C 88.117188 105.4375 60.863281 101.648438 44.25 110.414062 " fill-opacity="1" fill-rule="evenodd"/></g><path fill="#ff3131" d="M 5.054688 164.535156 C 64.765625 183.402344 96.882812 217.964844 82.757812 258 C 129.648438 221.945312 124.367188 153.894531 74.71875 132.574219 C 104.039062 165.144531 94.433594 179 55.734375 170.351562 C 37.398438 166.253906 17.417969 161.816406 5.054688 164.535156 " fill-opacity="1" fill-rule="evenodd"/><path fill="#00bf63" d="M 106.375 64.558594 C 98.71875 66.207031 93.820312 73.746094 95.429688 81.402344 C 97.074219 89.054688 104.613281 93.953125 112.269531 92.347656 C 119.925781 90.703125 124.824219 83.160156 123.21875 75.507812 C 121.609375 67.8125 114.070312 62.914062 106.375 64.558594 " fill-opacity="1" fill-rule="evenodd"/><path fill="#ff3131" d="M 65.914062 148.800781 C 61.511719 149.722656 58.71875 154.046875 59.675781 158.449219 C 60.59375 162.847656 64.921875 165.644531 69.324219 164.6875 C 73.722656 163.769531 76.519531 159.441406 75.5625 155.042969 C 74.605469 150.679688 70.28125 147.882812 65.914062 148.800781 " fill-opacity="1" fill-rule="evenodd"/><g fill="#f49f1c" fill-opacity="1"><g transform="translate(40.264411, 299.420371)"><g><path d="M 3.5 0 L 27.210938 0 C 28.761719 0 29.308594 -0.550781 29.308594 -2.101562 L 29.308594 -6.652344 C 29.308594 -8.253906 28.761719 -8.753906 27.210938 -8.753906 L 14.554688 -8.753906 L 28.359375 -28.210938 C 28.808594 -28.859375 29.058594 -29.460938 29.058594 -30.410156 L 29.058594 -33.410156 C 29.058594 -34.960938 28.511719 -35.511719 26.960938 -35.511719 L 3.75 -35.511719 C 2.199219 -35.511719 1.652344 -34.960938 1.652344 -33.410156 L 1.652344 -28.910156 C 1.652344 -27.308594 2.199219 -26.808594 3.75 -26.808594 L 15.957031 -26.808594 L 2.101562 -7.253906 C 1.652344 -6.652344 1.402344 -6.003906 1.402344 -5.152344 L 1.402344 -2.101562 C 1.402344 -0.550781 1.949219 0 3.5 0 Z M 3.5 0 "/></g></g></g><g fill="#f49f1c" fill-opacity="1"><g transform="translate(72.47475, 299.420371)"><g><path d="M 13.90625 0.75 C 19.65625 0.75 23.308594 -0.898438 25.207031 -4.203125 C 25.960938 -5.601562 25.609375 -6.453125 24.257812 -7.101562 L 20.808594 -8.601562 C 19.207031 -9.351562 18.707031 -9.054688 18.007812 -8.054688 C 17.304688 -7.152344 16.15625 -6.253906 14.003906 -6.253906 C 12.054688 -6.253906 10.753906 -7.152344 10.753906 -9.503906 L 10.753906 -10.453125 L 23.757812 -10.453125 C 25.808594 -10.453125 26.460938 -11.453125 26.460938 -13.054688 L 26.460938 -15.804688 C 26.460938 -21.808594 22.609375 -26.757812 13.953125 -26.757812 C 5.851562 -26.757812 1.449219 -22.707031 1.449219 -15.253906 L 1.449219 -10.804688 C 1.449219 -4.25 4.953125 0.75 13.90625 0.75 Z M 10.753906 -16.503906 L 10.753906 -17.15625 C 10.753906 -19.15625 11.753906 -20.15625 13.953125 -20.15625 C 16.207031 -20.15625 17.15625 -19.15625 17.15625 -17.15625 L 17.15625 -16.503906 Z M 10.753906 -16.503906 "/></g></g></g><g fill="#f49f1c" fill-opacity="1"><g transform="translate(101.584117, 299.420371)"><g><path d="M 3.300781 0 L 21.609375 0 C 23.058594 0 23.507812 -0.5 23.507812 -1.902344 L 23.507812 -6.003906 C 23.507812 -7.453125 23.058594 -7.902344 21.609375 -7.902344 L 12.703125 -7.902344 L 22.257812 -17.957031 C 22.957031 -18.707031 23.257812 -19.105469 23.257812 -20.207031 L 23.257812 -24.109375 C 23.257812 -25.507812 22.757812 -26.007812 21.359375 -26.007812 L 3.550781 -26.007812 C 2.101562 -26.007812 1.652344 -25.507812 1.652344 -24.109375 L 1.652344 -20.007812 C 1.652344 -18.554688 2.101562 -18.105469 3.550781 -18.105469 L 11.402344 -18.105469 L 2.101562 -7.800781 C 1.5 -7.152344 1.351562 -6.902344 1.351562 -5.800781 L 1.351562 -1.902344 C 1.351562 -0.5 1.851562 0 3.300781 0 Z M 3.300781 0 "/></g></g></g><g fill="#f49f1c" fill-opacity="1"><g transform="translate(127.8926, 299.420371)"><g><path d="M 4.101562 0 L 9.601562 0 C 11.003906 0 11.503906 -0.5 11.503906 -1.902344 L 11.503906 -18.15625 C 11.703125 -18.207031 12.753906 -18.40625 13.855469 -18.40625 C 15.855469 -18.40625 16.855469 -17.507812 16.855469 -15.605469 L 16.855469 -1.902344 C 16.855469 -0.5 17.355469 0 18.804688 0 L 24.257812 0 C 25.710938 0 26.160156 -0.5 26.160156 -1.902344 L 26.160156 -16.003906 C 26.160156 -22.757812 22.609375 -26.757812 14.90625 -26.757812 C 13.355469 -26.757812 11.902344 -26.609375 11.503906 -26.558594 L 11.503906 -35.113281 C 11.503906 -36.511719 11.003906 -37.011719 9.601562 -37.011719 L 4.101562 -37.011719 C 2.699219 -37.011719 2.199219 -36.511719 2.199219 -35.113281 L 2.199219 -1.902344 C 2.199219 -0.5 2.699219 0 4.101562 0 Z M 4.101562 0 "/></g></g></g><g fill="#f49f1c" fill-opacity="1"><g transform="translate(157.45211, 299.420371)"><g><path d="M 13.054688 0.75 C 17.605469 0.75 20.957031 0.199219 22.957031 -0.648438 C 24.410156 -1.25 24.808594 -1.800781 24.808594 -3.652344 L 24.808594 -15.957031 C 24.808594 -22.359375 22.058594 -26.757812 13.203125 -26.757812 C 7.601562 -26.757812 3.902344 -25.007812 2.101562 -21.558594 C 1.351562 -20.105469 1.800781 -19.40625 3.152344 -18.804688 L 6.703125 -17.355469 C 8.304688 -16.707031 8.804688 -17.054688 9.503906 -17.957031 C 10.203125 -18.90625 11.105469 -19.707031 12.753906 -19.707031 C 14.804688 -19.707031 15.554688 -18.757812 15.554688 -17.105469 L 15.554688 -15.804688 C 15.003906 -15.804688 14.15625 -15.855469 13.304688 -15.855469 C 4.75 -15.855469 1.152344 -14.054688 1.152344 -7.550781 C 1.152344 -1.949219 3.652344 0.75 13.054688 0.75 Z M 12.804688 -5.601562 C 10.703125 -5.601562 10.253906 -6.453125 10.253906 -7.601562 C 10.253906 -8.703125 10.753906 -9.652344 12.90625 -9.652344 C 13.753906 -9.652344 14.90625 -9.601562 15.554688 -9.601562 L 15.554688 -6.003906 C 15.554688 -5.800781 15.457031 -5.753906 15.304688 -5.753906 C 14.804688 -5.652344 14.105469 -5.601562 12.804688 -5.601562 Z M 12.804688 -5.601562 "/></g></g></g><g fill="#f49f1c" fill-opacity="1"><g transform="translate(185.561155, 299.420371)"><g><path d="M 12.355469 0 L 18.007812 0 C 19.605469 0 20.105469 -0.550781 20.105469 -2.101562 L 20.105469 -26.808594 L 27.558594 -26.808594 C 29.160156 -26.808594 29.660156 -27.308594 29.660156 -28.910156 L 29.660156 -33.410156 C 29.660156 -34.960938 29.160156 -35.511719 27.558594 -35.511719 L 2.800781 -35.511719 C 1.199219 -35.511719 0.699219 -34.960938 0.699219 -33.410156 L 0.699219 -28.910156 C 0.699219 -27.308594 1.199219 -26.808594 2.800781 -26.808594 L 10.253906 -26.808594 L 10.253906 -2.101562 C 10.253906 -0.550781 10.753906 0 12.355469 0 Z M 12.355469 0 "/></g></g></g><g fill="#f49f1c" fill-opacity="1"><g transform="translate(217.371379, 299.420371)"><g><path d="M 13.054688 0.75 C 17.605469 0.75 20.957031 0.199219 22.957031 -0.648438 C 24.410156 -1.25 24.808594 -1.800781 24.808594 -3.652344 L 24.808594 -15.957031 C 24.808594 -22.359375 22.058594 -26.757812 13.203125 -26.757812 C 7.601562 -26.757812 3.902344 -25.007812 2.101562 -21.558594 C 1.351562 -20.105469 1.800781 -19.40625 3.152344 -18.804688 L 6.703125 -17.355469 C 8.304688 -16.707031 8.804688 -17.054688 9.503906 -17.957031 C 10.203125 -18.90625 11.105469 -19.707031 12.753906 -19.707031 C 14.804688 -19.707031 15.554688 -18.757812 15.554688 -17.105469 L 15.554688 -15.804688 C 15.003906 -15.804688 14.15625 -15.855469 13.304688 -15.855469 C 4.75 -15.855469 1.152344 -14.054688 1.152344 -7.550781 C 1.152344 -1.949219 3.652344 0.75 13.054688 0.75 Z M 12.804688 -5.601562 C 10.703125 -5.601562 10.253906 -6.453125 10.253906 -7.601562 C 10.253906 -8.703125 10.753906 -9.652344 12.90625 -9.652344 C 13.753906 -9.652344 14.90625 -9.601562 15.554688 -9.601562 L 15.554688 -6.003906 C 15.554688 -5.800781 15.457031 -5.753906 15.304688 -5.753906 C 14.804688 -5.652344 14.105469 -5.601562 12.804688 -5.601562 Z M 12.804688 -5.601562 "/></g></g></g><g fill="#f49f1c" fill-opacity="1"><g transform="translate(245.480424, 299.420371)"><g><path d="M 4.152344 0 L 9.601562 0 C 11.054688 0 11.554688 -0.5 11.554688 -1.902344 L 11.554688 -35.113281 C 11.554688 -36.511719 11.054688 -37.011719 9.601562 -37.011719 L 4.152344 -37.011719 C 2.699219 -37.011719 2.25 -36.511719 2.25 -35.113281 L 2.25 -1.902344 C 2.25 -0.5 2.699219 0 4.152344 0 Z M 4.152344 0 "/></g></g></g><g fill="#f49f1c" fill-opacity="1"><g transform="translate(260.685432, 299.420371)"><g><path d="M 13.90625 0.75 C 19.65625 0.75 23.308594 -0.898438 25.207031 -4.203125 C 25.960938 -5.601562 25.609375 -6.453125 24.257812 -7.101562 L 20.808594 -8.601562 C 19.207031 -9.351562 18.707031 -9.054688 18.007812 -8.054688 C 17.304688 -7.152344 16.15625 -6.253906 14.003906 -6.253906 C 12.054688 -6.253906 10.753906 -7.152344 10.753906 -9.503906 L 10.753906 -10.453125 L 23.757812 -10.453125 C 25.808594 -10.453125 26.460938 -11.453125 26.460938 -13.054688 L 26.460938 -15.804688 C 26.460938 -21.808594 22.609375 -26.757812 13.953125 -26.757812 C 5.851562 -26.757812 1.449219 -22.707031 1.449219 -15.253906 L 1.449219 -10.804688 C 1.449219 -4.25 4.953125 0.75 13.90625 0.75 Z M 10.753906 -16.503906 L 10.753906 -17.15625 C 10.753906 -19.15625 11.753906 -20.15625 13.953125 -20.15625 C 16.207031 -20.15625 17.15625 -19.15625 17.15625 -17.15625 L 17.15625 -16.503906 Z M 10.753906 -16.503906 "/></g></g></g><g fill="#f49f1c" fill-opacity="1"><g transform="translate(289.794805, 299.420371)"><g><path d="M 4 0 L 9.503906 0 C 10.902344 0 11.402344 -0.5 11.402344 -1.902344 L 11.402344 -17.957031 C 11.402344 -18.054688 11.453125 -18.105469 11.554688 -18.15625 C 12.203125 -18.304688 12.90625 -18.40625 13.753906 -18.40625 C 15.804688 -18.40625 16.757812 -17.605469 16.757812 -15.605469 L 16.757812 -1.902344 C 16.757812 -0.5 17.257812 0 18.707031 0 L 24.160156 0 C 25.609375 0 26.058594 -0.5 26.058594 -1.902344 L 26.058594 -16.003906 C 26.058594 -22.757812 22.507812 -26.757812 14.804688 -26.757812 C 9.652344 -26.757812 6.351562 -25.757812 4.152344 -24.910156 C 2.5 -24.207031 2.101562 -23.558594 2.101562 -21.90625 L 2.101562 -1.902344 C 2.101562 -0.5 2.601562 0 4 0 Z M 4 0 "/></g></g></g><g fill="#f49f1c" fill-opacity="1"><g transform="translate(319.254276, 299.420371)"><g><path d="M 17.257812 0 C 18.757812 0 19.207031 -0.550781 19.207031 -2.050781 L 19.207031 -6.351562 C 19.207031 -7.800781 18.757812 -8.304688 17.257812 -8.304688 C 14.804688 -8.304688 13.855469 -9.054688 13.855469 -11.804688 L 13.855469 -18.40625 L 17.304688 -18.40625 C 18.757812 -18.40625 19.207031 -18.90625 19.207031 -20.355469 L 19.207031 -24.109375 C 19.207031 -25.507812 18.757812 -26.007812 17.304688 -26.007812 L 13.855469 -26.007812 L 13.855469 -30.109375 C 13.855469 -31.511719 13.355469 -32.011719 11.902344 -32.011719 L 6.453125 -32.011719 C 5 -32.011719 4.550781 -31.511719 4.550781 -30.109375 L 4.550781 -26.007812 L 2.351562 -26.007812 C 0.898438 -26.007812 0.449219 -25.507812 0.449219 -24.109375 L 0.449219 -20.355469 C 0.449219 -18.90625 0.898438 -18.40625 2.351562 -18.40625 L 4.550781 -18.40625 L 4.550781 -11.152344 C 4.550781 -2.75 8.503906 0 17.257812 0 Z M 17.257812 0 "/></g></g></g><g fill="#ff3131" fill-opacity="1"><g transform="translate(37.888154, 328.586052)"><g><path d="M 6.253906 0 L 9.113281 0 C 9.921875 0 10.175781 -0.277344 10.175781 -1.0625 L 10.175781 -13.566406 L 13.945312 -13.566406 C 14.757812 -13.566406 15.011719 -13.820312 15.011719 -14.628906 L 15.011719 -16.910156 C 15.011719 -17.695312 14.757812 -17.972656 13.945312 -17.972656 L 1.417969 -17.972656 C 0.609375 -17.972656 0.355469 -17.695312 0.355469 -16.910156 L 0.355469 -14.628906 C 0.355469 -13.820312 0.609375 -13.566406 1.417969 -13.566406 L 5.1875 -13.566406 L 5.1875 -1.0625 C 5.1875 -0.277344 5.441406 0 6.253906 0 Z M 6.253906 0 "/></g></g></g><g fill="#ff3131" fill-opacity="1"><g transform="translate(53.581961, 328.586052)"><g><path d="M 2.074219 0 L 4.859375 0 C 5.570312 0 5.820312 -0.253906 5.820312 -0.960938 L 5.820312 -9.1875 C 5.921875 -9.214844 6.453125 -9.316406 7.011719 -9.316406 C 8.023438 -9.316406 8.53125 -8.859375 8.53125 -7.898438 L 8.53125 -0.960938 C 8.53125 -0.253906 8.785156 0 9.515625 0 L 12.277344 0 C 13.011719 0 13.238281 -0.253906 13.238281 -0.960938 L 13.238281 -8.101562 C 13.238281 -11.515625 11.441406 -13.542969 7.542969 -13.542969 C 6.757812 -13.542969 6.023438 -13.464844 5.820312 -13.441406 L 5.820312 -17.769531 C 5.820312 -18.476562 5.570312 -18.730469 4.859375 -18.730469 L 2.074219 -18.730469 C 1.367188 -18.730469 1.113281 -18.476562 1.113281 -17.769531 L 1.113281 -0.960938 C 1.113281 -0.253906 1.367188 0 2.074219 0 Z M 2.074219 0 "/></g></g></g><g fill="#ff3131" fill-opacity="1"><g transform="translate(68.136703, 328.586052)"><g><path d="M 7.035156 0.378906 C 9.949219 0.378906 11.796875 -0.457031 12.757812 -2.125 C 13.136719 -2.835938 12.960938 -3.265625 12.277344 -3.59375 L 10.53125 -4.355469 C 9.71875 -4.734375 9.46875 -4.582031 9.113281 -4.074219 C 8.757812 -3.621094 8.175781 -3.164062 7.085938 -3.164062 C 6.101562 -3.164062 5.441406 -3.621094 5.441406 -4.808594 L 5.441406 -5.289062 L 12.023438 -5.289062 C 13.0625 -5.289062 13.390625 -5.796875 13.390625 -6.605469 L 13.390625 -8 C 13.390625 -11.035156 11.441406 -13.542969 7.0625 -13.542969 C 2.960938 -13.542969 0.734375 -11.492188 0.734375 -7.71875 L 0.734375 -5.46875 C 0.734375 -2.152344 2.507812 0.378906 7.035156 0.378906 Z M 5.441406 -8.351562 L 5.441406 -8.683594 C 5.441406 -9.695312 5.949219 -10.199219 7.0625 -10.199219 C 8.203125 -10.199219 8.683594 -9.695312 8.683594 -8.683594 L 8.683594 -8.351562 Z M 5.441406 -8.351562 "/></g></g></g><g fill="#ff3131" fill-opacity="1"><g transform="translate(82.463638, 328.586052)"><g/></g></g><g fill="#ff3131" fill-opacity="1"><g transform="translate(87.348995, 328.586052)"><g><path d="M 8.074219 0.378906 C 12.554688 0.378906 15.921875 -1.671875 15.921875 -5.390625 C 15.921875 -10.175781 12.125 -10.882812 9.1875 -11.289062 C 7.367188 -11.515625 5.871094 -11.746094 5.871094 -12.832031 C 5.871094 -13.71875 6.554688 -14.148438 8.277344 -14.148438 C 9.441406 -14.148438 10.351562 -13.796875 10.859375 -12.832031 C 11.238281 -12.097656 11.515625 -12 12.226562 -12.300781 L 14.730469 -13.390625 C 15.492188 -13.695312 15.695312 -14.074219 15.339844 -14.808594 C 14.148438 -17.238281 12.023438 -18.351562 8.277344 -18.351562 C 3.441406 -18.351562 0.757812 -16.023438 0.757812 -12.679688 C 0.757812 -7.769531 4.910156 -7.265625 7.871094 -6.835938 C 9.542969 -6.605469 10.859375 -6.351562 10.859375 -5.339844 C 10.859375 -4.253906 9.820312 -3.898438 8.125 -3.898438 C 6.707031 -3.898438 5.71875 -4.355469 5.265625 -5.238281 C 4.859375 -5.972656 4.53125 -6.050781 3.773438 -5.796875 L 1.390625 -4.9375 C 0.65625 -4.65625 0.457031 -4.304688 0.707031 -3.542969 C 1.671875 -0.910156 4.304688 0.378906 8.074219 0.378906 Z M 8.074219 0.378906 "/></g></g></g><g fill="#ff3131" fill-opacity="1"><g transform="translate(104.156553, 328.586052)"><g><path d="M 2.050781 5.542969 L 4.808594 5.542969 C 5.542969 5.542969 5.796875 5.316406 5.796875 4.582031 L 5.796875 0.253906 C 6.277344 0.304688 6.785156 0.378906 7.316406 0.378906 C 11.214844 0.378906 13.214844 -1.621094 13.214844 -5.339844 L 13.214844 -8.101562 C 13.214844 -11.515625 11.390625 -13.542969 7.417969 -13.542969 C 4.808594 -13.542969 3.214844 -13.113281 2.125 -12.679688 C 1.265625 -12.328125 1.089844 -12.046875 1.089844 -11.214844 L 1.089844 4.582031 C 1.089844 5.316406 1.316406 5.542969 2.050781 5.542969 Z M 6.9375 -3.695312 C 6.480469 -3.695312 6.023438 -3.773438 5.796875 -3.820312 L 5.796875 -9.1875 C 5.796875 -9.265625 5.820312 -9.289062 5.898438 -9.316406 C 6.152344 -9.390625 6.503906 -9.46875 7.0625 -9.46875 C 7.972656 -9.46875 8.503906 -9.011719 8.503906 -8.203125 L 8.503906 -5.085938 C 8.503906 -4.152344 8 -3.695312 6.9375 -3.695312 Z M 6.9375 -3.695312 "/></g></g></g><g fill="#ff3131" fill-opacity="1"><g transform="translate(118.458177, 328.586052)"><g><path d="M 2.050781 0 L 4.808594 0 C 5.542969 0 5.796875 -0.253906 5.796875 -0.960938 L 5.796875 -8.808594 C 5.796875 -8.882812 5.820312 -8.960938 5.921875 -8.984375 C 6.277344 -9.0625 6.65625 -9.085938 7.085938 -9.085938 L 8.050781 -9.085938 C 8.785156 -9.085938 9.011719 -9.316406 9.011719 -10.050781 L 9.011719 -12.199219 C 9.011719 -12.910156 8.785156 -13.164062 8.050781 -13.164062 L 7.265625 -13.164062 C 4.808594 -13.164062 3.113281 -12.730469 2.125 -12.351562 C 1.265625 -12.023438 1.089844 -11.667969 1.089844 -10.832031 L 1.089844 -0.960938 C 1.089844 -0.253906 1.316406 0 2.050781 0 Z M 2.050781 0 "/></g></g></g><g fill="#ff3131" fill-opacity="1"><g transform="translate(128.051666, 328.586052)"><g><path d="M 2.835938 -14.78125 L 4.074219 -14.78125 C 5.519531 -14.78125 5.949219 -15.1875 5.949219 -16.605469 L 5.949219 -16.882812 C 5.949219 -18.300781 5.519531 -18.730469 4.074219 -18.730469 L 2.835938 -18.730469 C 1.390625 -18.730469 0.960938 -18.300781 0.960938 -16.882812 L 0.960938 -16.605469 C 0.960938 -15.1875 1.390625 -14.78125 2.835938 -14.78125 Z M 2.074219 0 L 4.835938 0 C 5.570312 0 5.820312 -0.253906 5.820312 -0.960938 L 5.820312 -12.199219 C 5.820312 -12.910156 5.570312 -13.164062 4.835938 -13.164062 L 2.074219 -13.164062 C 1.339844 -13.164062 1.113281 -12.910156 1.113281 -12.199219 L 1.113281 -0.960938 C 1.113281 -0.253906 1.339844 0 2.074219 0 Z M 2.074219 0 "/></g></g></g><g fill="#ff3131" fill-opacity="1"><g transform="translate(135.291078, 328.586052)"><g><path d="M 2.023438 0 L 4.808594 0 C 5.519531 0 5.769531 -0.253906 5.769531 -0.960938 L 5.769531 -9.085938 C 5.769531 -9.136719 5.796875 -9.164062 5.847656 -9.1875 C 6.175781 -9.265625 6.53125 -9.316406 6.960938 -9.316406 C 8 -9.316406 8.480469 -8.910156 8.480469 -7.898438 L 8.480469 -0.960938 C 8.480469 -0.253906 8.734375 0 9.46875 0 L 12.226562 0 C 12.960938 0 13.1875 -0.253906 13.1875 -0.960938 L 13.1875 -8.101562 C 13.1875 -11.515625 11.390625 -13.542969 7.492188 -13.542969 C 4.886719 -13.542969 3.214844 -13.035156 2.101562 -12.605469 C 1.265625 -12.25 1.0625 -11.921875 1.0625 -11.085938 L 1.0625 -0.960938 C 1.0625 -0.253906 1.316406 0 2.023438 0 Z M 2.023438 0 "/></g></g></g><g fill="#ff3131" fill-opacity="1"><g transform="translate(149.795205, 328.586052)"><g><path d="M 8.734375 0 C 9.492188 0 9.71875 -0.277344 9.71875 -1.039062 L 9.71875 -3.214844 C 9.71875 -3.949219 9.492188 -4.203125 8.734375 -4.203125 C 7.492188 -4.203125 7.011719 -4.582031 7.011719 -5.972656 L 7.011719 -9.316406 L 8.757812 -9.316406 C 9.492188 -9.316406 9.71875 -9.566406 9.71875 -10.300781 L 9.71875 -12.199219 C 9.71875 -12.910156 9.492188 -13.164062 8.757812 -13.164062 L 7.011719 -13.164062 L 7.011719 -15.238281 C 7.011719 -15.945312 6.757812 -16.199219 6.023438 -16.199219 L 3.265625 -16.199219 C 2.53125 -16.199219 2.304688 -15.945312 2.304688 -15.238281 L 2.304688 -13.164062 L 1.191406 -13.164062 C 0.457031 -13.164062 0.226562 -12.910156 0.226562 -12.199219 L 0.226562 -10.300781 C 0.226562 -9.566406 0.457031 -9.316406 1.191406 -9.316406 L 2.304688 -9.316406 L 2.304688 -5.644531 C 2.304688 -1.390625 4.304688 0 8.734375 0 Z M 8.734375 0 "/></g></g></g><g fill="#ff3131" fill-opacity="1"><g transform="translate(160.4012, 328.586052)"><g/></g></g><g fill="#ff3131" fill-opacity="1"><g transform="translate(165.286556, 328.586052)"><g><path d="M 8.683594 0.378906 C 13.667969 0.378906 16.453125 -2.328125 16.453125 -6.683594 L 16.453125 -11.289062 C 16.453125 -15.644531 13.667969 -18.351562 8.683594 -18.351562 C 3.671875 -18.351562 0.910156 -15.644531 0.910156 -11.289062 L 0.910156 -6.683594 C 0.910156 -2.328125 3.671875 0.378906 8.683594 0.378906 Z M 8.683594 -4.050781 C 6.910156 -4.050781 5.898438 -4.886719 5.898438 -6.480469 L 5.898438 -11.492188 C 5.898438 -13.085938 6.910156 -13.921875 8.683594 -13.921875 C 10.429688 -13.921875 11.441406 -13.085938 11.441406 -11.492188 L 11.441406 -6.480469 C 11.441406 -4.886719 10.429688 -4.050781 8.683594 -4.050781 Z M 8.683594 -4.050781 "/></g></g></g><g fill="#ff3131" fill-opacity="1"><g transform="translate(182.980059, 328.586052)"><g><path d="M 3.214844 0 L 5.921875 0 C 6.683594 0 6.9375 -0.253906 6.9375 -0.960938 L 6.9375 -9.316406 L 8.683594 -9.316406 C 9.417969 -9.316406 9.644531 -9.566406 9.644531 -10.300781 L 9.644531 -12.199219 C 9.644531 -12.910156 9.417969 -13.164062 8.683594 -13.164062 L 6.9375 -13.164062 L 6.9375 -13.265625 C 6.9375 -14.351562 7.417969 -14.882812 8.65625 -14.882812 C 9.417969 -14.882812 9.644531 -15.136719 9.644531 -15.894531 L 9.644531 -17.742188 C 9.644531 -18.476562 9.417969 -18.730469 8.65625 -18.730469 L 8.203125 -18.730469 C 4.429688 -18.707031 2.226562 -17.011719 2.226562 -13.214844 L 2.226562 -13.164062 L 1.390625 -13.164062 C 0.65625 -13.164062 0.429688 -12.910156 0.429688 -12.199219 L 0.429688 -10.300781 C 0.429688 -9.566406 0.65625 -9.316406 1.390625 -9.316406 L 2.226562 -9.316406 L 2.226562 -0.960938 C 2.226562 -0.253906 2.457031 0 3.214844 0 Z M 3.214844 0 "/></g></g></g><g fill="#ff3131" fill-opacity="1"><g transform="translate(193.231676, 328.586052)"><g/></g></g><g fill="#ff3131" fill-opacity="1"><g transform="translate(198.117033, 328.586052)"><g><path d="M 8.683594 0.378906 C 13.667969 0.378906 16.453125 -2.328125 16.453125 -5.898438 L 16.453125 -9.238281 C 16.453125 -10.050781 16.175781 -10.328125 15.390625 -10.328125 L 8.984375 -10.328125 C 8.203125 -10.328125 7.921875 -10.050781 7.921875 -9.238281 L 7.921875 -7.339844 C 7.921875 -6.554688 8.203125 -6.277344 8.984375 -6.277344 L 11.414062 -6.277344 L 11.414062 -5.769531 C 11.414062 -4.683594 10.378906 -4.050781 8.683594 -4.050781 C 6.683594 -4.050781 5.898438 -4.910156 5.898438 -6.65625 L 5.898438 -11.316406 C 5.898438 -13.0625 6.683594 -13.921875 8.683594 -13.921875 C 10.125 -13.921875 10.859375 -13.414062 11.316406 -12.277344 C 11.59375 -11.492188 11.898438 -11.367188 12.679688 -11.59375 L 15.390625 -12.554688 C 16.125 -12.832031 16.328125 -13.1875 16.046875 -13.921875 C 15.011719 -16.757812 12.582031 -18.351562 8.683594 -18.351562 C 3.695312 -18.351562 0.910156 -15.644531 0.910156 -11.289062 L 0.910156 -6.683594 C 0.910156 -2.328125 3.695312 0.378906 8.683594 0.378906 Z M 8.683594 0.378906 "/></g></g></g><g fill="#ff3131" fill-opacity="1"><g transform="translate(215.683975, 328.586052)"><g><path d="M 7.035156 0.378906 C 11.1875 0.378906 13.3125 -1.722656 13.3125 -5.164062 L 13.3125 -8 C 13.3125 -11.441406 11.1875 -13.542969 7.035156 -13.542969 C 2.9375 -13.542969 0.757812 -11.441406 0.757812 -8 L 0.757812 -5.164062 C 0.757812 -1.722656 2.9375 0.378906 7.035156 0.378906 Z M 7.035156 -3.695312 C 5.972656 -3.695312 5.441406 -4.152344 5.441406 -5.039062 L 5.441406 -8.125 C 5.441406 -9.011719 5.972656 -9.492188 7.035156 -9.492188 C 8.101562 -9.492188 8.632812 -9.011719 8.632812 -8.125 L 8.632812 -5.039062 C 8.632812 -4.152344 8.101562 -3.695312 7.035156 -3.695312 Z M 7.035156 -3.695312 "/></g></g></g><g fill="#ff3131" fill-opacity="1"><g transform="translate(230.086833, 328.586052)"><g><path d="M 7.035156 0.378906 C 11.1875 0.378906 13.3125 -1.722656 13.3125 -5.164062 L 13.3125 -8 C 13.3125 -11.441406 11.1875 -13.542969 7.035156 -13.542969 C 2.9375 -13.542969 0.757812 -11.441406 0.757812 -8 L 0.757812 -5.164062 C 0.757812 -1.722656 2.9375 0.378906 7.035156 0.378906 Z M 7.035156 -3.695312 C 5.972656 -3.695312 5.441406 -4.152344 5.441406 -5.039062 L 5.441406 -8.125 C 5.441406 -9.011719 5.972656 -9.492188 7.035156 -9.492188 C 8.101562 -9.492188 8.632812 -9.011719 8.632812 -8.125 L 8.632812 -5.039062 C 8.632812 -4.152344 8.101562 -3.695312 7.035156 -3.695312 Z M 7.035156 -3.695312 "/></g></g></g><g fill="#ff3131" fill-opacity="1"><g transform="translate(244.489703, 328.586052)"><g><path d="M 6.632812 0.378906 C 9.214844 0.378906 10.757812 -0.0742188 11.847656 -0.507812 C 12.707031 -0.859375 12.910156 -1.113281 12.910156 -1.949219 L 12.910156 -17.769531 C 12.910156 -18.476562 12.65625 -18.730469 11.921875 -18.730469 L 9.164062 -18.730469 C 8.429688 -18.730469 8.203125 -18.476562 8.203125 -17.769531 L 8.203125 -13.464844 C 7.695312 -13.492188 7.136719 -13.542969 6.480469 -13.542969 C 2.734375 -13.542969 0.757812 -11.542969 0.757812 -7.847656 L 0.757812 -5.085938 C 0.757812 -1.644531 2.605469 0.378906 6.632812 0.378906 Z M 6.9375 -3.722656 C 6 -3.722656 5.46875 -4.152344 5.46875 -4.960938 L 5.46875 -8.074219 C 5.46875 -9.011719 5.972656 -9.46875 7.0625 -9.46875 C 7.519531 -9.46875 7.949219 -9.390625 8.203125 -9.339844 L 8.203125 -3.949219 C 8.203125 -3.871094 8.203125 -3.847656 8.125 -3.820312 C 7.871094 -3.773438 7.441406 -3.722656 6.9375 -3.722656 Z M 6.9375 -3.722656 "/></g></g></g><g fill="#ff3131" fill-opacity="1"><g transform="translate(258.791315, 328.586052)"><g/></g></g><g fill="#ff3131" fill-opacity="1"><g transform="translate(263.67666, 328.586052)"><g><path d="M 8.683594 0.378906 C 12.582031 0.378906 15.011719 -1.214844 16.046875 -4.050781 C 16.328125 -4.785156 16.125 -5.164062 15.390625 -5.417969 L 12.679688 -6.378906 C 11.949219 -6.65625 11.617188 -6.480469 11.316406 -5.695312 C 10.910156 -4.605469 10.101562 -4.050781 8.683594 -4.050781 C 6.683594 -4.050781 5.898438 -4.910156 5.898438 -6.65625 L 5.898438 -11.316406 C 5.898438 -13.0625 6.683594 -13.921875 8.683594 -13.921875 C 10.125 -13.921875 10.859375 -13.414062 11.316406 -12.277344 C 11.59375 -11.492188 11.898438 -11.367188 12.679688 -11.59375 L 15.390625 -12.554688 C 16.125 -12.832031 16.328125 -13.1875 16.046875 -13.921875 C 15.011719 -16.757812 12.582031 -18.351562 8.683594 -18.351562 C 3.695312 -18.351562 0.910156 -15.644531 0.910156 -11.289062 L 0.910156 -6.683594 C 0.910156 -2.328125 3.695312 0.378906 8.683594 0.378906 Z M 8.683594 0.378906 "/></g></g></g><g fill="#ff3131" fill-opacity="1"><g transform="translate(280.585464, 328.586052)"><g><path d="M 6.605469 0.378906 C 8.910156 0.378906 10.605469 0.101562 11.617188 -0.328125 C 12.351562 -0.632812 12.554688 -0.910156 12.554688 -1.847656 L 12.554688 -8.074219 C 12.554688 -11.316406 11.164062 -13.542969 6.683594 -13.542969 C 3.847656 -13.542969 1.972656 -12.65625 1.0625 -10.910156 C 0.683594 -10.175781 0.910156 -9.820312 1.59375 -9.515625 L 3.390625 -8.785156 C 4.203125 -8.453125 4.453125 -8.632812 4.808594 -9.085938 C 5.164062 -9.566406 5.621094 -9.972656 6.453125 -9.972656 C 7.492188 -9.972656 7.871094 -9.492188 7.871094 -8.65625 L 7.871094 -8 C 7.59375 -8 7.164062 -8.023438 6.734375 -8.023438 C 2.40625 -8.023438 0.582031 -7.113281 0.582031 -3.820312 C 0.582031 -0.988281 1.847656 0.378906 6.605469 0.378906 Z M 6.480469 -2.835938 C 5.417969 -2.835938 5.1875 -3.265625 5.1875 -3.847656 C 5.1875 -4.40625 5.441406 -4.886719 6.53125 -4.886719 C 6.960938 -4.886719 7.542969 -4.859375 7.871094 -4.859375 L 7.871094 -3.039062 C 7.871094 -2.9375 7.820312 -2.910156 7.746094 -2.910156 C 7.492188 -2.859375 7.136719 -2.835938 6.480469 -2.835938 Z M 6.480469 -2.835938 "/></g></g></g><g fill="#ff3131" fill-opacity="1"><g transform="translate(294.40615, 328.586052)"><g><path d="M 2.050781 0 L 4.808594 0 C 5.542969 0 5.796875 -0.253906 5.796875 -0.960938 L 5.796875 -8.808594 C 5.796875 -8.882812 5.820312 -8.960938 5.921875 -8.984375 C 6.277344 -9.0625 6.65625 -9.085938 7.085938 -9.085938 L 8.050781 -9.085938 C 8.785156 -9.085938 9.011719 -9.316406 9.011719 -10.050781 L 9.011719 -12.199219 C 9.011719 -12.910156 8.785156 -13.164062 8.050781 -13.164062 L 7.265625 -13.164062 C 4.808594 -13.164062 3.113281 -12.730469 2.125 -12.351562 C 1.265625 -12.023438 1.089844 -11.667969 1.089844 -10.832031 L 1.089844 -0.960938 C 1.089844 -0.253906 1.316406 0 2.050781 0 Z M 2.050781 0 "/></g></g></g><g fill="#ff3131" fill-opacity="1"><g transform="translate(303.99964, 328.586052)"><g><path d="M 7.035156 0.378906 C 9.949219 0.378906 11.796875 -0.457031 12.757812 -2.125 C 13.136719 -2.835938 12.960938 -3.265625 12.277344 -3.59375 L 10.53125 -4.355469 C 9.71875 -4.734375 9.46875 -4.582031 9.113281 -4.074219 C 8.757812 -3.621094 8.175781 -3.164062 7.085938 -3.164062 C 6.101562 -3.164062 5.441406 -3.621094 5.441406 -4.808594 L 5.441406 -5.289062 L 12.023438 -5.289062 C 13.0625 -5.289062 13.390625 -5.796875 13.390625 -6.605469 L 13.390625 -8 C 13.390625 -11.035156 11.441406 -13.542969 7.0625 -13.542969 C 2.960938 -13.542969 0.734375 -11.492188 0.734375 -7.71875 L 0.734375 -5.46875 C 0.734375 -2.152344 2.507812 0.378906 7.035156 0.378906 Z M 5.441406 -8.351562 L 5.441406 -8.683594 C 5.441406 -9.695312 5.949219 -10.199219 7.0625 -10.199219 C 8.203125 -10.199219 8.683594 -9.695312 8.683594 -8.683594 L 8.683594 -8.351562 Z M 5.441406 -8.351562 "/></g></g></g><g fill="#ff3131" fill-opacity="1"><g transform="translate(318.326566, 328.586052)"><g><path d="M 7.035156 0.378906 C 9.949219 0.378906 11.796875 -0.457031 12.757812 -2.125 C 13.136719 -2.835938 12.960938 -3.265625 12.277344 -3.59375 L 10.53125 -4.355469 C 9.71875 -4.734375 9.46875 -4.582031 9.113281 -4.074219 C 8.757812 -3.621094 8.175781 -3.164062 7.085938 -3.164062 C 6.101562 -3.164062 5.441406 -3.621094 5.441406 -4.808594 L 5.441406 -5.289062 L 12.023438 -5.289062 C 13.0625 -5.289062 13.390625 -5.796875 13.390625 -6.605469 L 13.390625 -8 C 13.390625 -11.035156 11.441406 -13.542969 7.0625 -13.542969 C 2.960938 -13.542969 0.734375 -11.492188 0.734375 -7.71875 L 0.734375 -5.46875 C 0.734375 -2.152344 2.507812 0.378906 7.035156 0.378906 Z M 5.441406 -8.351562 L 5.441406 -8.683594 C 5.441406 -9.695312 5.949219 -10.199219 7.0625 -10.199219 C 8.203125 -10.199219 8.683594 -9.695312 8.683594 -8.683594 L 8.683594 -8.351562 Z M 5.441406 -8.351562 "/></g></g></g><g fill="#ff3131" fill-opacity="1"><g transform="translate(332.653493, 328.586052)"><g><path d="M 2.050781 0 L 4.808594 0 C 5.542969 0 5.796875 -0.253906 5.796875 -0.960938 L 5.796875 -8.808594 C 5.796875 -8.882812 5.820312 -8.960938 5.921875 -8.984375 C 6.277344 -9.0625 6.65625 -9.085938 7.085938 -9.085938 L 8.050781 -9.085938 C 8.785156 -9.085938 9.011719 -9.316406 9.011719 -10.050781 L 9.011719 -12.199219 C 9.011719 -12.910156 8.785156 -13.164062 8.050781 -13.164062 L 7.265625 -13.164062 C 4.808594 -13.164062 3.113281 -12.730469 2.125 -12.351562 C 1.265625 -12.023438 1.089844 -11.667969 1.089844 -10.832031 L 1.089844 -0.960938 C 1.089844 -0.253906 1.316406 0 2.050781 0 Z M 2.050781 0 "/></g></g></g></svg>